<?xml version="1.0" encoding="UTF-8" standalone="no"?>
<svg
   id="Layer_1"
   data-name="Layer 1"
   viewBox="0 0 512 512"
   version="1.1"
   sodipodi:docname="linkedin-retro-1.svg"
   inkscape:version="1.1.1 (3bf5ae0d25, 2021-09-20)"
   xmlns:inkscape="http://www.inkscape.org/namespaces/inkscape"
   xmlns:sodipodi="http://sodipodi.sourceforge.net/DTD/sodipodi-0.dtd"
   xmlns="http://www.w3.org/2000/svg"
   xmlns:svg="http://www.w3.org/2000/svg">
  <defs
     id="defs17" />
  <sodipodi:namedview
     id="namedview15"
     pagecolor="#ffffff"
     bordercolor="#666666"
     borderopacity="1.0"
     inkscape:pageshadow="2"
     inkscape:pageopacity="0.0"
     inkscape:pagecheckerboard="0"
     showgrid="false"
     inkscape:zoom="1.6445312"
     inkscape:cx="256"
     inkscape:cy="256.30404"
     inkscape:window-width="1271"
     inkscape:window-height="1041"
     inkscape:window-x="15"
     inkscape:window-y="0"
     inkscape:window-maximized="0"
     inkscape:current-layer="post_stamp" />
  <title
     id="title2">linkedin</title>
  <g
     id="post_stamp"
     data-name="post stamp">
    <g
       id="border_stamp"
       data-name="border stamp">
      <path
         d="M420.79,512a26.72,26.72,0,0,0-48.69,0h-7.8a26.72,26.72,0,0,0-48.69,0H307.8a26.73,26.73,0,0,0-48.7,0h-7.8a26.73,26.73,0,0,0-48.69,0h-7.8a26.73,26.73,0,0,0-48.7,0h-7.79a26.74,26.74,0,0,0-48.71,0H81.83a26.74,26.74,0,0,0-48.7,0H0V493a25.29,25.29,0,0,0,15-23.2,25.32,25.32,0,0,0-15-23.2v-7a25.28,25.28,0,0,0,15-23.19A25.31,25.31,0,0,0,0,393.28v-7a25.26,25.26,0,0,0,15-23.2A25.31,25.31,0,0,0,0,339.95v-7.6a25,25,0,0,0,15-22.8,25,25,0,0,0-15-23v-7.79a25,25,0,0,0,15-22.66,25.13,25.13,0,0,0-15-22.9v-7.79a25,25,0,0,0,15-22.81,25,25,0,0,0-15-23V172a25.27,25.27,0,0,0,15-23.19,25.28,25.28,0,0,0-15-23.2v-7A25.28,25.28,0,0,0,15,95.5,25.27,25.27,0,0,0,0,72.32v-7A25.3,25.3,0,0,0,15,42.18,25.29,25.29,0,0,0,0,19V0H33.13A26.48,26.48,0,0,0,57.48,15.69,26.47,26.47,0,0,0,81.83,0h7.78A26.51,26.51,0,0,0,114,15.69,26.49,26.49,0,0,0,138.32,0h7.79a26.48,26.48,0,0,0,24.35,15.69A26.46,26.46,0,0,0,194.81,0h7.8A26.49,26.49,0,0,0,227,15.69,26.46,26.46,0,0,0,251.3,0h7.8a26.49,26.49,0,0,0,24.35,15.69A26.5,26.5,0,0,0,307.8,0h7.81a26.44,26.44,0,0,0,24.33,15.69A26.47,26.47,0,0,0,364.3,0h7.8a26.49,26.49,0,0,0,24.35,15.69A26.46,26.46,0,0,0,420.79,0h7.81a26.45,26.45,0,0,0,24.34,15.69A26.5,26.5,0,0,0,477.29,0H512V19a25.46,25.46,0,0,0,0,46.4v7a25.45,25.45,0,0,0,0,46.38v7A25.45,25.45,0,0,0,512,172v7.61a25,25,0,0,0,0,45.78v7.79a24.83,24.83,0,0,0,0,45.55v7.79a25,25,0,0,0,0,45.78v7.6a25.45,25.45,0,0,0,0,46.38v7a25.45,25.45,0,0,0,0,46.38v7a25.46,25.46,0,0,0,0,46.4v19H477.28a26.74,26.74,0,0,0-48.69,0Z"
         fill="#c6b99b"
         id="path4" />
    </g>
    <path
       id="inner_color_stamp"
       data-name="inner color stamp"
       d="M481.3,505.33a33.5,33.5,0,0,0-56.61-.17,33.5,33.5,0,0,0-56.5,0,33.5,33.5,0,0,0-56.5,0,33.5,33.5,0,0,0-56.49,0,33.5,33.5,0,0,0-56.5,0,33.5,33.5,0,0,0-56.5,0,33.51,33.51,0,0,0-56.5,0,33.5,33.5,0,0,0-56.6.18H6.66V497a32.18,32.18,0,0,0,15-27.2A32.17,32.17,0,0,0,7.46,443.15a32.18,32.18,0,0,0,14.17-26.68A32.16,32.16,0,0,0,7.46,389.81a32.17,32.17,0,0,0,14.17-26.68A32.16,32.16,0,0,0,7,336.17a31.8,31.8,0,0,0,14.63-26.52v-.38a31.8,31.8,0,0,0-14.75-26.6,31.91,31.91,0,0,0,14.75-26.42v-.51A31.89,31.89,0,0,0,6.87,229.34a31.86,31.86,0,0,0,14.75-26.62v-.37A31.83,31.83,0,0,0,7,175.82a32.13,32.13,0,0,0,14.64-27A32.15,32.15,0,0,0,7.46,122.19,32.19,32.19,0,0,0,21.63,95.5,32.15,32.15,0,0,0,7.46,68.85,32.2,32.2,0,0,0,21.63,42.18,32.13,32.13,0,0,0,6.66,15V6.67H29.11A33.37,33.37,0,0,0,57.48,22.34,33.35,33.35,0,0,0,85.71,6.86,33.43,33.43,0,0,0,114,22.34,33.39,33.39,0,0,0,142.21,6.86a33.4,33.4,0,0,0,28.24,15.48A33.38,33.38,0,0,0,198.71,6.86,33.41,33.41,0,0,0,227,22.34,33.4,33.4,0,0,0,255.2,6.86a33.38,33.38,0,0,0,28.24,15.48A33.41,33.41,0,0,0,311.7,6.86a33.38,33.38,0,0,0,28.24,15.48A33.38,33.38,0,0,0,368.19,6.86a33.4,33.4,0,0,0,28.26,15.48A33.42,33.42,0,0,0,424.69,6.86a33.41,33.41,0,0,0,28.24,15.48A33.4,33.4,0,0,0,481.3,6.67h24.05V15a32.2,32.2,0,0,0-.82,53.87,32.21,32.21,0,0,0,0,53.34,32.19,32.19,0,0,0,.47,53.63,31.84,31.84,0,0,0-14.6,26.52v.39a31.83,31.83,0,0,0,14.74,26.6,31.86,31.86,0,0,0-14.74,26.41v.51a31.9,31.9,0,0,0,14.74,26.42,31.78,31.78,0,0,0-14.74,26.6v.38A31.81,31.81,0,0,0,505,336.17a32.21,32.21,0,0,0-.47,53.64,32.2,32.2,0,0,0,0,53.34,32.2,32.2,0,0,0,.82,53.87v8.31Z"
       fill="#f9ecce" />
    <g
       id="inner_color"
       data-name="inner color"
       style="fill:#82a8bb;fill-opacity:1">
      <rect
         x="47.02"
         y="47.02"
         width="417.97"
         height="417.97"
         fill="#41607d"
         id="rect8"
         style="fill:#82a8bb;fill-opacity:1" />
    </g>
    <path
       id="inner_border"
       data-name="inner border"
       d="M466.28,466.28H45.71V45.71H466.28V466.28Zm-418-2.6H463.68V48.32H48.32V463.68Z"
       fill="#d9c7b2" />
  </g>
  <path
     id="linkedin"
     d="M154.51,189.8a23.75,23.75,0,0,1-23.76-24.13,22,22,0,0,1,6.89-16.4,23.78,23.78,0,0,1,40.42,17,23.54,23.54,0,0,1-23.55,23.54Zm-23.88,11.89h47.53V379.95H130.62ZM344.54,379.95V308.52c0-21.86-1.18-36.37-3.45-43.49s-6.4-12.61-12.12-16.4S316.26,243,307.83,243q-16.4,0-28.18,9.27c-7.73,6.16-13.18,14.85-16.27,25.78-1.55,5.71-2.27,18.2-2.27,37.19v64.66H213.8V201.69h47.56v23.77c12.24-8.69,23.06-15.92,32.92-19.38S311,201,321.35,201c21.42,0,36,6.29,50.88,19,12.6,10.7,19.61,26.62,19.61,47.77V379.95Z"
     fill="#f9ecce"
     fill-rule="evenodd" />
</svg>
