<svg width="197" height="60" viewBox="0 0 197 60" fill="none" xmlns="http://www.w3.org/2000/svg">
<g id="UN.org logo (1) 2" clip-path="url(#clip0_13501_17428)">
<path id="emblem" d="M56.9768 54.579C57.0121 54.5849 57.0448 54.6012 57.0706 54.6259C55.8032 55.9103 54.227 56.8472 52.4933 57.3467C51.318 57.6729 50.0895 57.7618 48.8795 57.6082C47.0385 57.3604 45.2844 56.6725 43.7655 55.6028C42.832 54.9874 41.907 54.3513 40.9828 53.7174C40.4753 53.3833 39.9066 53.1533 39.3096 53.0408C38.7126 52.9283 38.0992 52.9355 37.505 53.062C36.8361 53.1351 37.3428 53.4559 37.445 53.4905C39.103 54.3041 40.6745 55.2835 42.1354 56.4136C43.1242 57.142 44.8927 58.8559 44.8927 58.8559L43.5694 59.9997C43.5694 59.9997 42.559 58.8597 42.12 58.4182C40.3659 56.5406 38.3281 54.9499 36.081 53.7043C35.9937 53.6437 35.8928 53.6054 35.7873 53.5928C35.6805 53.606 35.5782 53.6442 35.4889 53.7043C33.2428 54.9514 31.2052 56.5418 29.4499 58.4182C29.024 58.8459 28.0052 59.9997 28.0052 59.9997L26.6819 58.8597C26.6819 58.8597 28.4504 57.1459 29.4438 56.4174C30.9047 55.2873 32.4762 54.308 34.1341 53.4944C34.2364 53.4428 34.7439 53.1213 34.0788 53.0659C33.4859 52.9405 32.874 52.9339 32.2786 53.0464C31.6831 53.1589 31.1158 53.3882 30.6095 53.7213C29.6868 54.3551 28.7595 55.0067 27.8222 55.6067C26.3033 56.6764 24.5491 57.3642 22.7082 57.612C21.4981 57.7656 20.2696 57.6767 19.0943 57.3505C17.3595 56.8487 15.7822 55.9104 14.5131 54.6251C14.5386 54.5982 14.5731 54.5818 14.61 54.579L14.8953 54.7205C16.7763 55.6554 18.9237 55.9069 20.9697 55.432C22.3856 55.1012 23.7618 54.6185 25.0741 53.992C26.0291 53.5636 26.971 53.1351 27.9552 52.8051C30.4576 51.9949 33.1423 51.9353 35.6781 52.6336H35.9426C38.4782 51.9355 41.1626 51.9951 43.6647 52.8051C44.6451 53.1305 45.5909 53.5851 46.5458 53.992C47.8541 54.614 49.2259 55.0924 50.6372 55.419C52.6775 55.8854 54.8164 55.6296 56.6893 54.6951L56.9768 54.579ZM63.0927 49.0082C62.2779 49.6629 61.3465 50.1572 60.3477 50.4651C58.9445 50.8804 57.4897 51.0953 56.0265 51.1036C54.1423 51.1635 52.2629 51.3265 50.3965 51.592H50.3642C50.245 51.592 50.1897 51.562 50.2281 51.5236H50.2581C51.8942 50.8481 53.2091 49.5706 53.932 47.9543C54.5286 46.819 55.5005 44.5951 55.7727 44.2351C55.7812 44.2028 55.7812 44.1689 55.7727 44.1367C55.6451 44.1797 53.7997 45.7605 52.9639 46.5451C51.9243 47.5136 50.944 48.5551 49.9037 49.5451C48.5202 50.7412 46.8701 51.5877 45.0918 52.0136L45.028 52.0436C45.0107 52.0673 44.9965 52.0932 44.9857 52.1205H45.0242C45.6808 52.2705 47.5816 52.6859 48.5527 52.9474C50.037 53.3802 51.56 53.6672 53.1 53.8043C55.0609 54.0006 57.0383 53.661 58.8216 52.8218C60.6049 51.9826 62.1272 50.6753 63.2265 49.039C63.2051 49.0296 63.1819 49.0247 63.1585 49.0247C63.135 49.0247 63.1119 49.0296 63.0904 49.039L63.0927 49.0082ZM68.8119 40.1813C67.8696 41.2995 66.7649 42.2701 65.5348 43.0605C64.471 43.7772 63.3439 44.3951 62.1677 44.9067C60.6851 45.5287 59.2944 46.3504 58.0341 47.349C57.9487 47.4174 57.8803 47.4736 57.7957 47.5336C57.7111 47.5936 57.7019 47.5336 57.7534 47.452C57.805 47.3705 59.7264 45.4167 60.3108 41.2513C60.4084 39.7589 60.6423 38.2786 61.0098 36.829C61.0135 36.8093 61.0127 36.7891 61.0075 36.7698C61.0023 36.7505 60.9928 36.7326 60.9798 36.7174C59.6328 38.4288 58.5798 40.3525 57.8642 42.4097C57.4797 43.5197 57.1099 44.6336 56.7108 45.739C56.2264 47.2504 55.4077 48.6331 54.3156 49.7844L54.2134 49.8959C54.2091 49.9185 54.2091 49.9417 54.2134 49.9644L54.5932 49.8959C55.8719 49.6305 57.1506 49.322 58.4285 49.1074C60.5043 48.7833 62.4646 47.9401 64.1277 46.6559C65.8846 45.3788 67.3119 43.7012 68.2913 41.762C68.5515 41.2514 68.7641 40.7179 68.9264 40.1682C68.9082 40.1619 68.8887 40.1597 68.8696 40.162C68.8504 40.1643 68.832 40.1709 68.8157 40.1813H68.8119ZM71.3139 30.2828C70.7049 32.0674 69.6826 33.6827 68.3305 34.9967C66.758 36.5414 65.3047 38.2031 63.9831 39.9674C63.9531 40.0105 63.8762 39.9674 63.9062 39.912C64.4515 38.1082 64.5969 36.2071 64.3322 34.3413C64.0808 32.7597 63.3949 31.042 63.2242 29.1105C63.2183 29.0915 63.2084 29.0741 63.1952 29.0593C63.1819 29.0446 63.1656 29.0329 63.1473 29.0251C63.1164 29.0833 63.0934 29.1454 63.0789 29.2097C62.6671 30.4525 62.3955 31.7374 62.2692 33.0405C62.1885 34.6174 62.4822 36.6443 62.3546 38.2644C62.3369 40.1295 61.9518 41.9729 61.2212 43.689V43.7105C61.2284 43.7555 61.2384 43.7999 61.2512 43.8436C61.9332 43.4151 63.8847 42.2451 65.1726 41.382C66.7926 40.334 68.1973 38.9857 69.3109 37.4097C70.7202 35.3809 71.4647 32.9641 71.4415 30.4936C71.4458 30.4108 71.4458 30.3279 71.4415 30.2451L71.3139 30.2828ZM67.171 31.3497L67.141 31.3843C67.1174 31.374 67.0968 31.3578 67.081 31.3374C67.1413 30.8096 67.1526 30.2773 67.1149 29.7474C66.9788 27.8967 65.8708 26.3628 64.8943 24.8243C64.2252 23.8204 63.6352 22.766 63.1296 21.6705C63.1296 21.6705 63.0527 21.619 63.032 21.6274C63.032 21.7943 63.0574 22.339 63.092 22.6905C63.4549 25.3429 64.1202 27.945 65.075 30.4459C65.6818 32.0057 65.9187 33.6851 65.767 35.352C65.767 35.4974 65.767 35.5151 65.8054 35.5574C66.3975 34.7005 67.5532 33.4874 68.2659 32.6182C69.0456 31.6713 72.924 27.219 71.0109 20.9974C70.9343 20.7321 70.8328 20.4745 70.708 20.2282C70.678 20.2282 70.6273 20.3051 70.6226 20.3267C70.6226 24.7882 68.492 26.7074 67.5885 29.7536C67.4263 30.3405 67.2948 30.8805 67.1626 31.3305L67.171 31.3497ZM63.8263 17.4705C62.9325 16.6865 62.1381 15.7957 61.4611 14.8182H61.4365C61.4045 14.8097 61.3708 14.8097 61.3388 14.8182H61.2827C61.5795 15.8592 61.9276 16.8833 62.3269 17.8905C62.9632 19.1708 63.7513 20.3697 64.6744 21.4613C64.7343 21.5467 64.7982 21.6282 64.8574 21.7097C65.9392 23.2209 66.8003 24.8786 67.4148 26.6328C67.4148 26.6674 67.5001 26.7013 67.504 26.6882C67.6231 26.2343 68.1814 24.4682 68.5904 23.2605C68.9831 22.0544 69.3061 20.8268 69.5577 19.5836C69.9376 16.4618 69.1346 13.3109 67.3071 10.752C67.2771 10.752 67.2517 10.8374 67.2602 10.8551C67.2902 10.9536 67.3117 11.0305 67.3409 11.1251C67.3702 11.2197 67.4132 11.382 67.4432 11.5151C67.7886 13.1241 67.8147 14.7853 67.5201 16.4044C67.2816 17.6875 67.1617 18.9899 67.1618 20.2951C67.1618 20.5136 67.3063 22.1251 67.2894 22.1851C67.2725 22.2451 67.2002 22.1851 67.1918 22.1851C67.1833 22.1851 66.9826 21.5851 66.7658 21.0967C66.6933 20.9053 66.611 20.7179 66.519 20.5351C65.8886 19.3072 64.964 18.2545 63.8278 17.4713L63.8263 17.4705ZM61.9471 5.5705C62.4924 6.09121 62.9272 6.71646 63.2257 7.40897C63.6226 8.73192 63.9273 10.0808 64.1377 11.4459C64.3207 12.2151 64.436 12.7313 64.7044 13.6228C64.7044 13.6997 64.649 13.7343 64.6067 13.6613L64.5852 13.6359C63.6142 12.4386 62.4184 11.4429 61.0651 10.7051C60.1731 10.1668 59.393 9.46168 58.7676 8.6282L58.4178 8.16666C58.3875 8.14647 58.3519 8.136 58.3155 8.13666C58.3155 8.20185 58.3241 8.26675 58.3409 8.32973C58.6329 9.81705 59.3319 11.1941 60.36 12.3074C61.1866 13.1005 62.1162 13.8028 62.9981 14.5382C64.1338 15.5086 65.1703 16.5896 66.0922 17.7651C66.0922 17.7651 66.1645 17.8082 66.1645 17.7651C66.1645 17.5297 66.1345 17.1613 66.1345 16.7282C66.1345 15.7597 66.1768 14.4613 66.2199 13.5697C66.2199 13.2097 66.2499 12.8459 66.2452 12.4859C66.2808 11.4032 66.0861 10.3253 65.674 9.32358C65.0144 7.68904 63.7901 6.34575 62.2239 5.5382C62.1262 5.49159 62.0248 5.45301 61.9209 5.42281C61.9126 5.4409 61.9082 5.46058 61.9082 5.4805C61.9082 5.50042 61.9126 5.52011 61.9209 5.5382C61.9209 5.5382 61.9386 5.5705 61.9471 5.5705ZM55.2084 2.44281C56.124 3.3008 56.9312 4.26774 57.612 5.32204C58.2392 6.35478 58.997 7.30233 59.8664 8.14127C60.4761 8.76281 62.25 10.1467 62.696 10.4936H62.7344V10.472C62.6406 9.9582 61.8394 6.18666 59.4996 4.34435C58.162 3.28805 56.6102 2.53647 54.9523 2.14204V2.25358C55.0434 2.31135 55.1291 2.37726 55.2084 2.4505V2.44281ZM18.4715 53.7774C20.0114 53.641 21.5344 53.3548 23.0188 52.9228C23.9945 52.6613 25.8914 52.2459 26.5473 52.0959H26.5858C26.575 52.0686 26.5608 52.0427 26.5435 52.019L26.4797 51.989C24.7004 51.5659 23.0496 50.719 21.6678 49.5205C20.6283 48.552 19.6479 47.5105 18.6076 46.5205C17.7549 45.7367 15.9272 44.1551 15.7988 44.112C15.7884 44.144 15.7884 44.1785 15.7988 44.2105C16.0717 44.5705 17.0429 46.7813 17.6395 47.9297C18.3612 49.5469 19.6764 50.8247 21.3134 51.499H21.3434C21.3818 51.5374 21.3434 51.589 21.2073 51.5674H21.1773C19.3152 51.3035 17.4401 51.1419 15.5604 51.0836C14.0978 51.0709 12.6443 50.8516 11.243 50.432C10.2442 50.1242 9.31282 49.6298 8.49798 48.9751C8.47777 48.9667 8.45608 48.9623 8.43417 48.9623C8.41225 48.9623 8.39056 48.9667 8.37035 48.9751C9.46963 50.6114 10.992 51.9188 12.7753 52.758C14.5585 53.5972 16.5359 53.9367 18.4969 53.7405L18.4715 53.7774ZM17.0106 49.9205L17.3896 49.9851C17.3864 49.9625 17.3791 49.9406 17.3681 49.9205L17.2658 49.809C16.1737 48.6577 15.3551 47.275 14.8707 45.7636C14.4747 44.6582 14.1018 43.5436 13.7173 42.4343C13.0103 40.3733 11.9566 38.4482 10.6017 36.742C10.5776 36.7739 10.5669 36.8139 10.5717 36.8536C10.9392 38.3032 11.1731 39.7835 11.2707 41.2759C11.842 45.4413 13.7512 47.4036 13.8281 47.4767C13.9049 47.5497 13.8281 47.592 13.7858 47.5582C13.7435 47.5243 13.632 47.4467 13.5474 47.3736C12.2865 46.3759 10.8959 45.5543 9.41375 44.9313C8.23756 44.4197 7.11053 43.8018 6.04671 43.0851C4.80637 42.2879 3.69416 41.307 2.74809 40.1759C2.72937 40.1674 2.70905 40.163 2.6885 40.163C2.66795 40.163 2.64764 40.1674 2.62891 40.1759C2.79126 40.7256 3.00386 41.2591 3.26403 41.7697C4.24829 43.7045 5.67832 45.3775 7.43612 46.6505C9.10806 47.9517 11.0837 48.8055 13.1768 49.1313C14.4555 49.3282 15.7342 49.6367 17.0121 49.9005L17.0106 49.9205ZM6.42732 41.3513C7.70601 42.2082 9.66672 43.3736 10.3487 43.8128C10.3487 43.8128 10.3956 43.7274 10.3787 43.6797C10.3618 43.632 10.3787 43.6797 10.3787 43.6544C9.65166 41.9374 9.26642 40.095 9.24459 38.2305C9.11696 36.6105 9.41068 34.5836 9.32994 33.0067C9.20486 31.7037 8.93458 30.4188 8.52413 29.1759C8.50771 29.1122 8.48478 29.0503 8.4557 28.9913C8.43032 28.9913 8.38726 29.0513 8.3788 29.0767C8.20811 31.009 7.52609 32.7274 7.27081 34.3074C7.00614 36.1732 7.15151 38.0744 7.69678 39.8782C7.72677 39.9551 7.64988 39.9767 7.61989 39.9336C6.27535 38.1937 4.81632 36.5454 3.2525 34.9997C1.89794 33.6878 0.875263 32.0719 0.269136 30.2859C0.269136 30.2859 0.192245 30.2174 0.175329 30.2259C0.166807 30.3085 0.166807 30.3917 0.175329 30.4743C0.151354 32.9433 0.896587 35.3585 2.30751 37.3843C3.41654 38.9584 4.81687 40.3053 6.4327 41.352L6.42732 41.3513ZM5.7353 35.5667C5.77533 35.5045 5.78916 35.429 5.77375 35.3567C5.61797 33.6811 5.85492 31.9923 6.46576 30.4243C7.4102 27.92 8.07474 25.3188 8.44724 22.6682C8.48107 22.3167 8.51567 21.7728 8.50721 21.6051C8.47023 21.609 8.43574 21.6256 8.40956 21.652C7.90301 22.7455 7.31305 23.7984 6.64492 24.8013C5.66917 26.3436 4.56118 27.8736 4.42431 29.7243C4.38728 30.2546 4.39938 30.7871 4.46045 31.3151C4.46085 31.3226 4.45945 31.3301 4.45637 31.3369C4.45329 31.3437 4.44863 31.3497 4.44277 31.3544C4.43699 31.3589 4.43023 31.3621 4.42302 31.3635C4.4158 31.365 4.40834 31.3648 4.40125 31.3628C4.34127 31.3628 4.37587 31.3628 4.37126 31.3282C4.25208 30.8997 4.11982 30.3382 3.94528 29.7559C3.05027 26.7005 0.901947 24.7851 0.915018 20.329C0.915018 20.329 0.859657 20.2305 0.829669 20.2305C0.703012 20.476 0.601512 20.7338 0.52672 20.9997C-1.38863 27.219 2.4982 31.6713 3.2648 32.6151C3.99911 33.4836 5.15708 34.709 5.73684 35.5659L5.7353 35.5667ZM2.98415 23.2167C3.41012 24.412 3.95605 26.1774 4.07523 26.6444C4.07523 26.6444 4.15596 26.6444 4.16442 26.589C4.78313 24.8366 5.64394 23.1795 6.72181 21.6659C6.78178 21.5843 6.8456 21.5028 6.90481 21.4174C7.8237 20.3233 8.61035 19.1245 9.24844 17.8459C9.64725 16.8397 9.9953 15.8156 10.2926 14.7736H10.2273C10.1953 14.7651 10.1616 14.7651 10.1296 14.7736C10.1194 14.7784 10.1106 14.7858 10.1042 14.7951C9.4272 15.7726 8.63288 16.6634 7.73907 17.4474C6.61831 18.2246 5.69334 19.2516 5.03713 20.4474C4.96485 20.5928 4.87489 20.7943 4.79031 21.009C4.58117 21.4974 4.36434 22.0859 4.36434 22.0974C4.36434 22.109 4.29206 22.192 4.26669 22.0974C4.24131 22.0028 4.38202 20.4259 4.39433 20.2074C4.39446 18.9023 4.27451 17.5998 4.03601 16.3167C3.73275 14.6983 3.75891 13.0354 4.11291 11.4274C4.14289 11.299 4.17672 11.1659 4.21517 11.0374L4.29667 10.769C4.29667 10.769 4.29667 10.6743 4.24977 10.6659C2.43067 13.2287 1.6273 16.3758 1.99533 19.4974C2.25406 20.755 2.5842 21.9967 2.98415 23.2167ZM5.4262 16.7551C5.43423 17.101 5.42422 17.4472 5.39621 17.792C5.39621 17.8174 5.46849 17.792 5.46849 17.792C6.38953 16.6171 7.42609 15.5376 8.56257 14.5697C9.44451 13.8367 10.3741 13.1343 11.2007 12.339C12.2257 11.2233 12.9219 9.84546 13.2122 8.3582C13.229 8.29522 13.2375 8.23031 13.2375 8.16512C13.2011 8.16389 13.1653 8.17441 13.1353 8.19512L12.7854 8.65666C12.16 9.49014 11.38 10.1953 10.4879 10.7336C9.13098 11.4659 7.93416 12.4624 6.96786 13.6643L6.94633 13.6897C6.90404 13.7628 6.82715 13.7282 6.84868 13.6513C7.11703 12.7943 7.23313 12.2413 7.41536 11.4743C7.72293 10.2143 7.84134 8.55127 8.3319 7.43743C8.62996 6.74474 9.0655 6.11981 9.61213 5.6005C9.62473 5.56307 9.62473 5.52255 9.61213 5.48512C9.50819 5.51531 9.40688 5.5539 9.30918 5.6005C7.74345 6.40906 6.51996 7.75318 5.8614 9.3882C5.46087 10.3797 5.27178 11.444 5.30625 12.5128C5.30625 12.8728 5.30625 13.2367 5.33162 13.5967C5.38314 14.4882 5.4262 15.7867 5.4262 16.7551ZM8.79709 10.5159C8.80955 10.5202 8.82308 10.5202 8.83554 10.5159C9.26151 10.169 11.0515 8.80204 11.6651 8.16358C12.5396 7.32481 13.3029 6.37734 13.9365 5.34435C14.6147 4.28685 15.4224 3.31832 16.3408 2.46127C16.4177 2.3882 16.4769 2.34127 16.5538 2.27281C16.5538 2.27281 16.5838 2.19589 16.5538 2.16127C14.8949 2.5596 13.3429 3.31569 12.0065 4.37666C9.66672 6.23666 8.86552 9.99204 8.77172 10.5043L8.79709 10.5159ZM35.1437 30.9851C35.3267 30.7105 34.8707 30.5567 34.7516 31.0151C34.6324 31.4736 34.9476 31.2813 35.1437 30.9851ZM40.1301 19.4159C39.9509 19.3213 39.222 20.2174 39.3419 20.359C39.6669 20.0918 39.9372 19.7642 40.1378 19.3943L40.1301 19.4159ZM40.2877 19.2574C40.3984 19.3128 40.8798 19.052 40.7906 18.979C40.7014 18.9059 40.1339 18.6405 40.1216 18.8036C40.1216 19.0436 40.1816 19.1767 40.2923 19.232L40.2877 19.2574ZM49.0717 26.9997C48.841 26.9997 48.5942 27.3467 48.6457 27.3513C48.8118 27.3513 48.9356 27.4759 49.0717 27.4459C49.3316 27.3728 49.3024 26.9705 49.0717 26.979V26.9997ZM45.8884 18.6613C45.6923 18.6613 45.6416 18.8843 45.8284 18.9828C45.9929 19.0161 46.1639 18.9887 46.3098 18.9059C46.442 18.8243 46.5912 18.7213 46.5658 18.5213C46.5658 18.3967 46.2629 18.0543 46.412 17.9213C46.5612 17.7882 46.7319 18.0028 46.8895 17.9213C47.0472 17.8397 47.0641 17.7367 47.0687 17.5743C47.0733 17.412 46.988 17.0513 46.7281 17.0513C46.532 17.0513 46.1952 17.5744 46.1829 17.6082C46.1316 17.7464 46.1316 17.8984 46.1829 18.0367C46.3067 18.3151 46.2598 18.632 45.893 18.6405L45.8884 18.6613ZM50.2012 18.6997C50.2012 18.8197 50.5418 19.6551 50.5765 19.8867C50.611 20.1182 50.6833 20.7997 50.8663 20.7436C50.9817 20.7005 50.9732 20.282 50.9471 20.1182C50.8749 19.6347 50.7594 19.1587 50.6018 18.6959C50.508 18.4128 50.1074 17.4836 49.9752 17.5136C49.8429 17.5436 50.1758 18.1905 50.222 18.4051C50.2367 18.4961 50.2367 18.5888 50.222 18.6797L50.2012 18.6997ZM47.9299 7.49435C48.1429 7.57589 48.1429 7.17281 47.7807 6.87896C47.4185 6.58512 46.928 6.72897 47.0733 6.87896C47.3318 7.11937 47.6196 7.32613 47.9299 7.49435ZM38.1271 4.6582C37.7011 4.37973 38.0548 3.9982 37.7011 3.74127C37.5193 3.67655 37.3235 3.6619 37.1341 3.69884C36.9447 3.73578 36.7688 3.82297 36.6246 3.95127C36.3394 4.3282 36.9998 4.20435 37.2397 4.31127C37.4796 4.4182 38.0925 4.92666 38.1855 4.82512C38.2785 4.72358 38.1601 4.71358 38.1301 4.6582H38.1271ZM40.7267 3.34281C40.1516 3.07743 37.9817 3.08973 38.0356 3.65589C38.0825 4.14435 39.2889 3.68589 39.5995 3.65589C39.9102 3.62589 41.2142 3.60435 40.7075 3.34281H40.7267ZM34.381 28.7097C34.351 28.6028 34.1633 28.6197 34.2103 28.7097C34.2572 28.7997 34.1549 28.9113 34.2487 29.0351C34.3246 29.0974 34.4197 29.1314 34.5178 29.1314C34.6159 29.1314 34.711 29.0974 34.7869 29.0351C34.8182 28.9927 34.8325 28.9401 34.8269 28.8878C34.8214 28.8354 34.7964 28.7869 34.7569 28.752C34.6378 28.7174 34.3902 28.8167 34.3648 28.709L34.381 28.7097ZM33.5252 24.3736C33.7043 24.3736 33.6959 24.2367 33.802 24.2451C33.9081 24.2536 33.802 24.3782 34.0026 24.3782C34.2033 24.3782 34.3694 23.9167 33.7897 23.9167C33.3206 23.9167 33.3637 24.3667 33.5252 24.3782V24.3736ZM34.2756 24.8536C33.9173 24.7636 33.9903 24.969 33.7681 24.9905C33.4014 25.0336 33.7258 24.7205 33.5467 24.562C33.4698 24.4974 33.253 24.8105 33.2391 24.9905C33.2391 25.0851 33.2391 25.419 33.3798 25.419C33.7957 25.4522 34.2097 25.5066 34.6201 25.582C34.893 25.642 34.6201 24.939 34.2879 24.8536H34.2756ZM30.2565 29.2074C30.3673 29.2074 30.448 28.8136 30.3803 28.6205C30.3127 28.4274 29.9543 28.569 29.9244 28.659C29.8944 28.749 30.1573 29.2074 30.2596 29.2074H30.2565ZM25.0141 29.169C25.0141 28.9974 25.0141 28.5005 24.8949 28.4059C24.7758 28.3113 24.7927 28.4913 24.7119 28.479C24.6312 28.4667 24.6481 28.2436 24.5674 28.2436C24.4866 28.2436 24.5974 28.6374 24.6827 28.8651C24.7681 29.0928 24.9964 29.4728 25.018 29.169H25.0141ZM24.8865 27.9605C24.9952 27.5694 25.0554 27.1663 25.0656 26.7605C25.0403 26.4436 24.8696 26.1451 24.8273 26.169C24.785 26.1928 24.8573 26.3874 24.8657 26.692C24.8355 27.0284 24.7682 27.3605 24.665 27.682C24.665 27.8236 24.8011 28.1436 24.8865 27.9605ZM10.8478 25.0374C10.8392 19.2548 12.8335 13.6478 16.4913 9.17041C20.1492 4.69297 25.2447 1.62165 30.9109 0.478965C36.5726 -0.643636 42.4483 0.237572 47.532 2.97172C52.6158 5.70588 56.5915 10.1229 58.7784 15.4667C60.9839 20.8174 61.2746 26.7659 59.6013 32.3064C57.9281 37.8468 54.3935 42.6391 49.5953 45.8728C46.53 47.9232 43.0476 49.2664 39.3998 49.8053C35.752 50.3442 32.0301 50.0654 28.5032 48.989C24.9764 47.9126 21.7327 46.0656 19.0068 43.5814C16.2809 41.0972 14.1409 38.0381 12.7416 34.6251C11.4906 31.5824 10.8485 28.3236 10.8516 25.0336L10.8478 25.0374ZM18.5222 41.6151L21.2326 38.8943C20.6993 38.3291 20.1985 37.734 19.7325 37.112C19.5119 37.0357 19.3149 36.9032 19.1612 36.7274C18.9305 36.4197 18.8113 35.9944 18.6999 35.9944C18.5884 35.9944 18.6999 36.2644 18.4438 36.302C18.107 36.349 17.6341 35.5136 17.4511 35.2051C17.2681 34.8967 16.876 34.8451 16.6968 34.5067C16.6453 34.4082 16.5261 34.1128 16.4154 34.2882C16.2278 34.5882 15.5927 33.6328 15.4312 33.7013C15.2698 33.7697 15.4097 33.9628 15.3159 34.0482C15.1329 34.2113 14.5954 33.3151 14.3932 33.4097C14.191 33.5043 14.1625 33.6113 14.1502 33.8382C14.1379 34.0651 14.4439 34.6951 14.3378 34.7613C13.9425 34.1578 13.6835 33.4752 13.5789 32.7613C13.6766 32.7097 13.6597 32.8513 13.7665 32.7867C13.8734 32.722 13.6896 32.5813 13.6389 32.3582C13.5882 32.1351 13.3921 32.1274 13.3744 31.8782C13.3567 31.629 13.7112 31.7151 13.7066 31.5951C13.7026 31.532 13.7127 31.4689 13.7359 31.4101C13.7592 31.3513 13.7951 31.2984 13.8411 31.2551C13.9565 31.152 14.2256 31.2551 14.2671 30.9082C14.3086 30.5613 14.4678 30.9082 14.4978 31.1097C14.5278 31.3113 15.1836 31.4313 15.2136 31.2551C15.2436 31.079 14.9537 31.1482 14.9537 31.0497C14.9537 30.8613 15.312 31.0497 15.555 31.0497C15.6619 31.0497 15.8534 30.8867 16.0933 31.0113C16.2805 31.1219 16.4851 31.1999 16.6984 31.242C16.1195 29.4051 15.8067 27.4947 15.7695 25.569H11.9335C12.043 31.5545 14.3943 37.2809 18.5222 41.6151ZM34.2941 19.4028C34.3194 19.4459 34.0426 19.6982 33.9019 19.9413C34.3435 19.7748 34.8049 19.6667 35.2744 19.6197V15.7651C33.1971 15.886 31.2225 16.7095 29.6745 18.1005L32.3933 20.8174C32.6985 20.5562 33.0313 20.3292 33.386 20.1405C33.4798 20.0936 33.5736 20.0505 33.6712 20.012C33.8373 19.712 34.2425 19.352 34.2933 19.4036L34.2941 19.4028ZM24.8642 33.7367C24.8727 33.8108 24.8727 33.8856 24.8642 33.9597C25.0649 34.2043 25.2648 34.4436 25.4793 34.6751L28.1859 31.9582C26.8857 30.513 26.0182 28.731 25.6823 26.8159C25.6471 26.8322 25.607 26.8342 25.5704 26.8214C25.5338 26.8086 25.5036 26.7821 25.4862 26.7474C25.4309 26.6528 25.5116 26.5543 25.6269 26.4605C25.5885 26.169 25.5585 25.8774 25.5462 25.6036H23.7431C23.7431 25.8951 23.8792 26.3067 23.6878 26.4605C23.4963 26.6143 23.3125 26.4605 23.1718 26.4605C22.8266 26.5074 22.7458 26.9274 22.8396 27.2105C22.9207 27.3816 22.9587 27.5699 22.9504 27.759C22.9165 27.952 22.8143 28.1059 23.1165 28.269C23.4186 28.432 23.8492 28.9928 23.8154 29.092C23.7816 29.1913 23.4871 28.972 23.4702 29.2036C23.4702 29.3451 23.8961 29.1651 23.8546 29.632C23.8421 29.8989 23.8885 30.1652 23.9907 30.412C24.1924 30.7521 24.3092 31.1357 24.3313 31.5305C24.2705 31.9101 24.2981 32.2987 24.4121 32.6659C24.5482 33.039 24.838 33.3344 24.838 33.7582L24.8642 33.7367ZM22.5882 27.2836C22.3668 27.0267 22.7328 26.2982 22.7889 26.1567C22.845 26.0151 23.1849 25.8097 23.2833 25.5828H21.6978C21.7275 26.4172 21.8304 27.2473 22.0054 28.0636C22.3883 28.1913 23.1295 27.879 22.5882 27.2828V27.2836ZM21.5956 37.6451H21.5571C21.7017 37.8082 21.8508 37.9751 21.9831 38.1336L22.2906 37.8259C22.0223 37.6505 21.7578 37.5344 21.5986 37.6328L21.5956 37.6451ZM28.1505 18.1259L25.4516 15.4267C23.1554 17.9088 21.8234 21.1316 21.6971 24.5113H23.5847C23.7625 24.134 23.8694 23.7272 23.9 23.3113C24.0138 23.0315 24.1566 22.7644 24.3259 22.5143C24.462 22.2836 24.6197 22.0343 24.9142 22.0343C25.5293 22.0343 25.6831 21.7043 26.0737 21.5243C26.4643 21.3443 27.1501 21.2374 27.0733 21.0359C26.9964 20.8343 25.6331 21.439 25.6031 21.3313C25.5477 21.1467 26.0291 21.1643 26.2467 20.9759C26.2818 20.9425 26.3221 20.915 26.3659 20.8944C26.8048 19.8768 27.4065 18.9375 28.1474 18.1136L28.1505 18.1259ZM27.6645 20.6644L27.7753 20.609C27.9784 20.5029 28.201 20.439 28.4294 20.4213C28.6579 20.4036 28.8876 20.4324 29.1047 20.5059C29.4427 20.6991 29.7624 20.9229 30.0597 21.1743C30.145 21.239 30.1835 21.1228 30.5756 21.0628C30.7417 21.0374 30.7763 21.2043 31.0016 21.2343C31.0821 21.2472 31.1641 21.2472 31.2446 21.2343L28.8963 18.8543C28.4158 19.3951 28.0027 19.9923 27.6661 20.6328L27.6645 20.6644ZM25.0133 23.5682C24.8918 23.5538 24.7685 23.5684 24.6537 23.6109C24.5388 23.6535 24.4357 23.7227 24.3529 23.8128C24.2698 23.9033 24.2091 24.012 24.1758 24.1303C24.1426 24.2486 24.1376 24.373 24.1614 24.4936H25.5285C25.5341 24.2359 25.557 23.9789 25.597 23.7243C25.4169 23.6294 25.2199 23.571 25.0172 23.5528L25.0133 23.5682ZM28.9048 31.1959L31.6029 28.479C31.3809 28.213 31.1855 27.926 31.0193 27.622C30.9805 27.666 30.9477 27.7149 30.9216 27.7674C30.8663 27.892 30.9216 28.2943 30.7679 28.4705C30.6141 28.6467 29.9751 27.9736 29.7921 27.9136C29.6091 27.8536 29.4253 28.1105 29.4384 28.192C29.4722 28.3974 29.4384 28.479 29.3408 28.4997C29.2431 28.5205 28.7956 28.2082 29.0001 28.1267C29.2047 28.0451 28.9363 27.8351 28.8341 27.7536C28.6595 27.6205 28.4081 27.7536 28.2589 27.5651C28.1341 27.4083 27.9713 27.286 27.786 27.2097C27.6243 27.1376 27.4408 27.1315 27.2747 27.1928C27.1386 27.2659 26.9894 27.1159 26.8903 27.0128C26.7911 26.9097 26.7795 26.8928 26.7196 26.8328C27.0392 28.4561 27.7882 29.9639 28.8886 31.199L28.9048 31.1959ZM31.6029 26.482V26.139C31.5987 26.1265 31.5987 26.113 31.6029 26.1005L31.6283 26.0574C31.6451 26.0387 31.6664 26.0246 31.6902 26.0164C31.714 26.0081 31.7396 26.0061 31.7644 26.0105C31.8735 26.0437 31.9844 26.0709 32.0965 26.092C32.1414 26.0959 32.1866 26.0876 32.2272 26.068C32.2678 26.0484 32.3023 26.0181 32.3272 25.9805C32.362 25.9392 32.3908 25.8931 32.4125 25.8436C32.4327 25.8036 32.4443 25.7598 32.4464 25.7151C32.4507 25.6982 32.4507 25.6805 32.4464 25.6636C32.4464 25.6251 32.3741 25.612 32.2634 25.6636H32.1996L32.0673 25.689H32.0035C31.9734 25.6862 31.9444 25.6767 31.9186 25.6611C31.8928 25.6455 31.8708 25.6243 31.8543 25.599C31.8389 25.5798 31.8274 25.5579 31.8205 25.5343C31.8074 25.5046 31.7917 25.476 31.7736 25.449C31.7002 25.3605 31.6087 25.2889 31.5052 25.239C31.4498 25.2098 31.3981 25.1739 31.3515 25.132L31.2746 25.059L31.2192 24.9943L31.1808 24.9597L31.1508 24.9344L31.1039 24.9428L31.07 24.9174H30.8824C30.812 24.9062 30.7399 24.9128 30.6727 24.9367C30.6055 24.9607 30.5454 25.0011 30.498 25.0543C30.4746 25.0737 30.4532 25.0953 30.4341 25.119C30.4104 25.1446 30.3902 25.1733 30.3742 25.2043C30.3742 25.239 30.3357 25.2728 30.3142 25.3074C30.2684 25.393 30.2286 25.4817 30.195 25.5728C29.8875 26.3913 29.5261 26.1382 29.5853 26.4297C29.5853 26.4643 29.6791 26.4897 29.8067 26.4982H30.6802L30.7571 26.4682L30.8847 26.4167C30.9232 26.4022 30.9632 26.3921 31.0039 26.3867C31.0814 26.3603 31.1656 26.3607 31.2428 26.3879C31.3201 26.4151 31.386 26.4675 31.4299 26.5367C31.4879 26.5302 31.5464 26.5302 31.6044 26.5367L31.6029 26.482ZM35.2514 14.6813V10.8243C31.8747 10.9512 28.6573 12.2932 26.1905 14.6036L28.8886 17.3159C30.6394 15.7232 32.888 14.7872 35.2514 14.6674V14.6813ZM35.2514 9.7705V5.91358C30.5777 6.05398 26.1228 7.92639 22.7512 11.1674L25.4516 13.8797C28.1153 11.3735 31.5992 9.92198 35.2537 9.79589L35.2514 9.7705ZM22 11.9128C18.7839 15.3274 16.9388 19.8081 16.8176 24.4982H20.6536C20.7758 20.8299 22.22 17.3295 24.7196 14.6428L22 11.9128ZM16.8176 25.569C16.8679 27.5145 17.2156 29.441 17.8487 31.2813H17.9002C18.2928 31.3128 18.687 31.245 19.0466 31.0843C19.4219 30.7928 19.0766 29.752 19.3111 29.3151C19.601 28.7767 20.3299 27.5028 20.5468 27.4936C20.7636 27.4844 20.7298 27.6305 20.8282 27.6567C20.7174 26.9695 20.6535 26.2756 20.6367 25.5797L16.8176 25.569ZM35.259 45.1844C30.3078 45.0536 25.5826 43.083 22.0046 39.6567L19.3004 42.3751C23.592 46.5251 29.2938 48.8976 35.2613 49.0167L35.259 45.1844ZM35.259 40.2782C31.9014 40.1643 28.6785 38.9288 26.1044 36.769C26.1589 36.8338 26.2088 36.9025 26.2536 36.9743C26.4281 37.282 27.0379 37.8974 26.6496 38.1444C26.2613 38.3913 25.7969 38.2128 25.4962 38.209C25.1956 38.2051 24.6819 38.702 24.4013 38.7474C24.0971 38.8146 23.7791 38.7783 23.4978 38.6443C23.3886 38.5947 23.2855 38.5328 23.1903 38.4597L22.7643 38.8882C26.142 42.1143 30.5949 43.9735 35.2629 44.1067L35.259 40.2782ZM35.259 38.9282C34.7429 38.9956 34.2185 38.9593 33.7166 38.8213C33.316 38.5428 32.8385 38.2682 32.7878 38.052C32.6901 37.6674 32.1726 37.379 32.1726 37.0236C32.1726 36.6682 32.7178 36.492 32.5732 36.0851C32.4541 35.7636 32.7693 35.3613 33.3422 35.0782C31.692 34.671 30.169 33.8598 28.9102 32.7174L26.1998 35.4259C28.6625 37.7382 31.8805 39.0775 35.256 39.1951L35.259 38.9282ZM36.0818 33.7859C36.5077 33.7174 36.9345 33.5974 37.2882 33.5628C37.6419 33.5282 37.2882 34.0943 37.5096 34.1197C37.7311 34.1451 38.9629 34.3505 39.0475 34.0813C39.132 33.812 39.1328 33.7643 39.3842 33.7082C39.8272 33.6821 40.2566 33.545 40.6329 33.3097C40.7775 33.2028 41.0589 33.1597 41.1658 32.9967C41.2727 32.8336 41.102 32.0497 40.8121 32.1782C40.6714 32.2382 40.5045 32.4436 40.2023 32.6067C39.9002 32.7697 39.741 32.8082 39.5419 32.5467C39.3427 32.2851 39.6487 32.1182 39.7933 31.9636C40.0147 31.719 40.2193 31.4667 40.4669 31.4667C40.5645 31.4667 41.082 31.2097 41.0335 30.9736C40.9782 30.6659 40.3815 31.0036 40.2408 30.879C40.1001 30.7544 40.2408 30.5713 40.1639 30.5359C40.087 30.5005 39.874 30.8105 40.0447 30.9644C40.1339 31.0497 39.904 31.2859 39.6441 31.1144C39.3842 30.9428 39.3927 31.7143 39.4134 31.8513C39.4342 31.9882 39.7072 31.9459 39.5242 32.1859C39.3412 32.4259 39.2681 32.2505 39.1397 32.3705C39.0113 32.4905 38.939 32.5674 39.1397 32.7774C39.3404 32.9874 39.0459 33.2574 38.9859 32.962C38.9436 32.769 38.5338 32.8251 38.4577 32.6067C38.3816 32.3882 38.0317 32.4013 37.6396 32.1782C37.3366 32.0197 37.3751 32.4859 37.8956 32.6067C38.3216 32.7051 38.3216 32.7605 38.1855 33.0351C38.0494 33.3097 38.1048 32.8597 37.5804 32.7182C37.2397 32.6282 37.2267 32.4482 36.9583 32.4528C36.69 32.4574 36.7792 32.7097 36.497 32.6459C36.284 32.5943 36.2502 32.8859 36.071 32.9674C35.8919 33.049 35.8403 33.5113 35.5981 33.6313C35.2314 33.8113 34.4817 33.6782 34.5155 33.3143C34.5493 32.9505 34.567 32.6759 34.7754 32.5451C34.9838 32.4143 35.2652 32.7636 35.5212 32.6482C35.5719 32.6188 35.6145 32.5774 35.6454 32.5276C35.6762 32.4778 35.6943 32.4211 35.6981 32.3627C35.7019 32.3042 35.6913 32.2457 35.6671 32.1924C35.643 32.139 35.6061 32.0924 35.5597 32.0567C35.5128 31.992 35.3167 31.8936 35.3213 31.8336C35.3259 31.7736 35.7058 31.722 35.9011 31.589C36.0819 31.4157 36.25 31.2296 36.4039 31.032C36.5062 30.9505 36.7115 30.929 36.7323 30.852C36.753 30.7751 36.5877 30.5774 36.6046 30.4582C36.6215 30.339 36.6646 30.2436 36.7538 30.2528C36.843 30.262 36.9583 30.5274 36.8984 30.5913C36.8384 30.6551 36.9453 30.7882 37.0729 30.7367C37.2005 30.6851 37.648 30.5059 37.7764 30.4751C37.9049 30.4443 37.7342 30.0213 37.7764 29.9482C37.8187 29.8751 37.8833 29.9736 37.951 29.9051C38.0187 29.8367 37.8103 29.7682 37.8441 29.6182C37.8779 29.4682 38.3339 29.3828 38.2063 29.2967C38.0786 29.2105 37.9033 29.4597 37.7803 29.502C37.5496 29.609 37.4304 29.352 37.4397 29.1551C37.4397 29.0605 37.5719 28.7267 37.4397 28.662C37.3074 28.5974 37.2567 28.9697 37.2305 29.0467C37.185 29.1393 37.1646 29.2423 37.1713 29.3453C37.1781 29.4483 37.2117 29.5477 37.269 29.6336C37.3582 29.809 37.3113 30.3967 37.1329 30.4605C36.9545 30.5243 36.8561 30.1605 36.7661 30.032C36.7566 30.0092 36.7402 29.9898 36.7192 29.9767H36.6638L36.6684 29.9936L36.6085 30.092C36.5785 30.153 36.5528 30.216 36.5316 30.2805C36.5229 30.3115 36.5054 30.3393 36.4813 30.3606C36.4571 30.3819 36.4273 30.3958 36.3955 30.4005C36.2027 30.4179 36.0092 30.425 35.8157 30.422H35.5897C35.6156 30.5369 35.6527 30.649 35.7004 30.7567C35.8073 30.9582 36.008 31.1213 35.9772 31.2667C35.9464 31.412 35.3252 31.5536 35.2737 31.442C35.2221 31.3305 35.4274 31.0136 35.4097 30.9105C35.3798 30.6874 35.2652 30.5551 35.2821 30.3967C34.2263 30.2911 33.2254 29.8752 32.4056 29.2013L29.6891 31.9228C31.0426 33.137 32.7252 33.9231 34.5247 34.182C34.7846 34.019 34.8915 33.7536 35.0999 33.8905C35.4074 34.1774 35.8073 33.8436 36.0672 33.8005L36.0818 33.7859ZM36.3247 40.282V44.139C37.8391 44.0967 39.3429 43.8723 40.8036 43.4705C40.5053 43.2136 40.3777 42.802 39.9978 42.6736C39.3627 42.4251 39.2097 42.0436 39.5365 41.4736C39.7195 41.1659 39.6472 41.0451 39.4296 40.7197C39.2197 40.41 38.9231 40.1691 38.5769 40.0274C37.831 40.1659 37.0759 40.2489 36.3178 40.2759L36.3247 40.282ZM38.1532 38.9967C38.0763 38.9353 37.9853 38.8942 37.8885 38.877C37.7917 38.8598 37.6921 38.8671 37.5988 38.8982C36.9768 39.0697 37.1729 38.5728 36.3201 38.7013V39.1897C36.9332 39.1662 37.5441 39.1017 38.1486 38.9967H38.1532ZM52.2811 42.3605L49.5746 39.6397C48.1705 40.9749 46.5834 42.1032 44.8612 42.9905C44.2996 43.3818 43.698 43.7122 43.0665 43.9759C42.8492 44.1009 42.6083 44.1795 42.3591 44.2067C42.2802 44.2063 42.2031 44.1824 42.1377 44.1382C40.2619 44.7683 38.3027 45.1149 36.3247 45.1667V48.9997C42.2877 48.8861 47.9868 46.5195 52.2773 42.3751L52.2811 42.3605ZM46.9449 14.6236C46.9435 14.6326 46.9401 14.6411 46.9349 14.6486C46.9297 14.656 46.9228 14.6622 46.9149 14.6667C47.5459 15.3529 48.1163 16.0926 48.6196 16.8774C48.6749 16.8043 48.7218 16.7405 48.8026 16.8305C48.8833 16.9205 48.6619 17.259 49.0625 17.1951C49.3008 17.1482 49.2539 17.4605 49.0625 17.6236C49.1863 17.8543 49.3054 18.0736 49.4162 18.3051C49.5569 18.3697 49.663 18.4467 49.6845 18.5359C49.774 18.8169 49.8467 19.1031 49.9021 19.3928C50.0936 19.8767 50.2604 20.3697 50.405 20.8751C50.6011 20.7082 50.831 20.7982 50.831 21.0805C50.8467 21.3778 50.7819 21.6739 50.6433 21.9374C50.8181 22.7841 50.921 23.6441 50.9509 24.5082H54.7862C54.7177 22.0281 54.1693 19.5849 53.1715 17.3136C53.0992 17.3736 52.997 17.3782 52.8686 17.5443C52.6725 17.7928 52.3611 17.4844 52.1912 17.2697C51.8713 16.8759 51.1147 15.7574 50.7802 15.7013C50.4457 15.6451 50.2858 15.2728 49.9875 15.2259C49.6891 15.179 49.3185 14.9951 49.2716 14.6774C49.2709 14.5444 49.2185 14.4168 49.1255 14.3217C49.0326 14.2265 48.9063 14.1712 48.7734 14.1674C48.4245 14.1213 48.1046 13.9492 47.8737 13.6836L46.9618 14.6005C46.9657 14.6146 46.9657 14.6295 46.9618 14.6436L46.9449 14.6236ZM49.3646 37.9105L49.5738 38.1205C52.7809 34.7145 54.6224 30.2465 54.747 25.569H50.9132C50.7868 29.2364 49.3433 32.7354 46.8472 35.4243L48.2236 36.809L48.249 36.749C48.3221 36.4945 48.3509 36.2294 48.3343 35.9651C48.3343 35.8236 48.8726 35.8582 48.9095 36.0982C48.9955 36.3905 49.1008 36.6768 49.2247 36.9551C49.3735 37.2564 49.4212 37.5976 49.3608 37.9282L49.3646 37.9105ZM46.4551 40.3074C46.3575 40.552 45.8454 40.989 45.9353 41.1305C46.9633 40.4735 47.9265 39.7201 48.8118 38.8805L46.1137 36.1682C45.9261 36.3482 45.7293 36.5151 45.534 36.682C45.487 36.9951 45.534 37.239 45.9092 37.3551C46.2844 37.4713 47.0003 37.899 46.8596 38.3067C46.6339 38.7497 46.382 39.179 46.1053 39.592C45.9138 39.969 46.5743 40.0205 46.4505 40.3251L46.4551 40.3074ZM47.0856 24.4528C47.0814 24.4704 47.0727 24.4866 47.0602 24.4997H49.8644C49.8556 24.0953 49.8229 23.6918 49.7668 23.2913C49.7668 23.3343 49.7199 23.3728 49.703 23.4159C49.49 23.8443 49.46 23.5913 49.4723 23.4159C49.517 23.1733 49.5914 22.9372 49.6937 22.7128C49.6824 22.5808 49.6582 22.4501 49.6215 22.3228C49.5181 22.4577 49.3817 22.5636 49.2255 22.6305C49.1017 22.6905 48.9871 22.9859 48.9402 23.0974C48.8933 23.209 48.5781 23.0674 48.3251 23.1874C47.8991 23.4059 47.4255 23.4405 47.7499 23.9028C47.9545 24.1813 47.2471 24.0959 47.081 24.4728L47.0856 24.4528ZM46.1137 15.4005L43.4156 18.1128C43.8803 18.6321 44.2924 19.1961 44.6459 19.7967C45.0453 19.8391 45.4138 20.0316 45.677 20.3351C45.873 20.592 46.4459 21.1043 46.3544 21.3351C46.3029 21.472 46.4228 21.6482 46.5504 21.7636C46.7511 21.9005 46.8911 21.8967 46.9764 21.7636C47.1771 21.5067 47.2071 21.1636 47.4708 20.9451C47.7346 20.7267 48.455 21.4505 48.4512 21.592C48.4473 21.7336 48.2805 21.7674 48.2336 22.0205C48.1652 22.3636 47.8714 22.7743 48.2036 22.8774C48.6895 23.0443 48.7534 22.852 48.9833 22.509C49.094 22.3505 49.0686 22.0805 49.184 21.939C49.2644 21.8538 49.3598 21.7842 49.4654 21.7336C49.2859 20.979 49.0436 20.2408 48.7411 19.5267C48.6693 19.4535 48.5817 19.3977 48.485 19.3636C48.3105 19.3082 48.4081 19.149 48.1775 19.0767C47.9468 19.0043 47.8153 18.9182 47.793 18.4613C47.793 18.0882 48.1006 18.5813 48.1851 18.5167C48.2056 18.4998 48.2231 18.4795 48.2367 18.4567C47.6615 17.3569 46.9453 16.337 46.106 15.4228L46.1137 15.4005ZM42.8405 19.0813C42.7284 19.0805 42.6173 19.0602 42.5121 19.0213L41.6218 19.9174C41.8138 19.929 42.0048 19.9547 42.1931 19.9943C42.406 20.0713 42.3168 19.3259 42.679 19.399C43.0412 19.472 43.1403 19.7067 42.8366 19.8274C42.5329 19.9482 42.9004 20.1143 42.606 20.2174C42.3115 20.3205 42.8274 20.5474 42.8236 20.6459C42.8197 20.7443 42.4529 20.8513 42.9981 21.0228C43.5433 21.1943 42.9981 20.5613 43.0834 20.4697C43.1688 20.3782 43.4794 20.6413 43.5609 20.5167C43.5909 20.4697 43.6417 20.392 43.7101 20.302C43.4574 19.8737 43.1723 19.4653 42.8574 19.0805L42.8405 19.0813ZM41.4641 33.3205C41.4641 33.509 41.2811 33.359 41.2258 33.4236C41.7707 33.7776 42.3558 34.0653 42.9689 34.2805C43.3104 34.3776 43.6705 34.3895 44.0177 34.3151C44.3967 34.242 44.5036 34.4182 44.6782 34.4097C44.9296 34.4097 45.1041 34.0582 45.2364 33.8482C45.6208 33.2951 45.5516 33.2228 45.6624 33.1328C45.7731 33.0428 46.1737 33.8743 46.1237 34.4182C46.129 34.4994 46.1188 34.5808 46.0937 34.6582L46.136 34.7013C48.4315 32.2018 49.7544 28.9614 49.8644 25.569H46.9618C47.13 25.8117 47.2823 26.0651 47.4178 26.3274C47.5669 26.6351 47.6484 27.1113 47.8991 27.1374C48.2951 27.1759 48.7049 27.5059 48.7172 27.7843C48.7172 28.3628 46.9441 28.5043 46.7096 28.4313C46.4751 28.3582 46.3813 28.3543 46.369 28.6667C46.3567 28.979 45.7216 29.022 45.4694 29.232C45.2172 29.442 45.1618 29.9051 44.975 30.209C44.6859 30.5503 44.3662 30.8644 44.02 31.1474C43.594 31.4474 42.7759 31.4643 43.1673 31.6613C43.4318 31.8067 44.02 31.8543 43.9554 31.7167C43.8908 31.579 44.0023 31.5367 44.1046 31.6697C44.2068 31.8028 44.4667 31.5751 44.4583 31.3913C44.4498 31.2074 44.416 30.9374 44.5736 30.9297C44.8335 30.9297 45.1064 30.622 45.2341 30.6513C45.3617 30.6805 45.5747 31.0067 45.4255 31.9967C45.3034 32.7134 45.0285 33.3955 44.6197 33.9967C44.419 34.3313 44.1937 34.0736 43.9423 33.932C43.5393 33.8072 43.1283 33.7098 42.7121 33.6405C42.5206 33.5805 41.4587 33.179 41.468 33.3236L41.4641 33.3205ZM59.6373 25.569H55.8012C55.6772 30.5382 53.7188 35.2856 50.3035 38.8959L53.01 41.6167C57.1565 37.2907 59.5225 31.5613 59.6373 25.569ZM53.0439 8.45435L50.2181 11.2959C50.6275 11.9207 51.1079 12.4958 51.6498 13.0097C51.9313 13.2967 52.2296 13.5797 52.5026 13.8367C52.7755 14.0936 54.2841 16.0051 53.9858 16.2836C53.965 16.3058 53.9421 16.3259 53.9174 16.3436C55.1195 18.8941 55.7798 21.6663 55.8565 24.4851H59.668C59.5503 18.4993 57.1862 12.7768 53.0454 8.45435H53.0439ZM36.3332 4.88973C39.4754 4.96402 42.5548 5.78508 45.3171 7.28512C45.5482 7.26319 45.7758 7.2128 45.9945 7.13512C46.3313 6.97204 47.0003 7.33666 47.3201 7.52512C47.64 7.71358 47.8445 7.95358 48.1728 8.12897C48.6437 8.42423 48.9907 8.8813 49.1486 9.41435C49.2678 9.95281 49.6099 9.91589 49.4385 10.1343C49.3531 10.2459 49.4808 10.2844 49.643 10.3828L52.298 7.71358C48.0069 3.56349 42.3044 1.1923 36.3371 1.07666L36.3332 4.88973ZM36.3332 9.79589C39.4565 9.90841 42.4669 10.9929 44.945 12.8982C44.672 12.5336 44.3952 12.1613 44.2676 12.0197C44.0369 11.7713 43.155 11.4628 43.2449 11.3213C43.3349 11.1797 44.0976 11.8013 44.2445 11.6897C44.3914 11.5782 43.8524 10.8328 43.8946 10.8328C44.3246 11.1422 44.6832 11.5401 44.9465 11.9997C45.0788 12.2013 45.4363 12.1028 45.7154 12.2951C45.9945 12.4874 45.9753 12.7451 46.1844 12.9251C46.2183 12.9551 46.6535 13.2082 46.4021 13.1782C46.3252 13.1782 46.2144 13.0151 46.1291 13.0928C46.0437 13.1705 46.1629 13.4143 46.3121 13.7082L47.5962 12.4182C47.4304 12.034 47.1528 11.7085 46.7996 11.4844C46.5481 11.4074 46.3736 11.6428 46.1944 11.792C46.0153 11.9413 45.7938 11.9936 45.7685 11.8905C45.765 11.7202 45.7722 11.5499 45.79 11.3805C45.79 11.2351 45.6577 11.119 45.6193 10.9774C45.5301 10.6428 45.6662 10.2744 45.4617 10.0543C45.2564 9.7752 45.0763 9.4784 44.9234 9.16743C44.6519 8.82925 44.4584 8.43525 44.3568 8.01358C41.8637 6.74968 39.121 6.05602 36.3271 5.98281L36.3332 9.79589ZM36.3332 14.7067C38.6927 14.8272 40.9372 15.7633 42.6836 17.3551L45.3748 14.6428C42.9109 12.3367 39.6987 10.9964 36.3271 10.8674L36.3332 14.7067ZM36.3332 19.6213C36.695 19.6572 37.0521 19.7304 37.3989 19.8397C37.4927 19.6167 37.7188 19.5051 37.9064 19.3782C38.094 19.2513 38.2855 19.0567 38.2562 19.4682C38.2504 19.5803 38.2208 19.6898 38.1694 19.7896C38.118 19.8893 38.0459 19.977 37.9579 20.0467C38.334 20.2104 38.6901 20.4169 39.019 20.662L39.232 20.8336L39.5995 20.4613C39.5954 20.4472 39.5954 20.4323 39.5995 20.4182C39.5995 20.2082 39.9071 19.9567 40.2562 19.8028L41.4449 18.6105H41.3426C41.1804 18.6105 40.9582 18.9236 40.8044 18.829C40.6506 18.7344 41.3288 18.1051 41.6571 18.2251L41.7978 18.2805L41.947 18.1267C40.4012 16.7345 38.4274 15.9108 36.3509 15.7913L36.3332 19.6213ZM35.8004 20.6667C35.3666 20.6675 34.9355 20.7339 34.5217 20.8636C34.4701 20.9236 34.4279 20.9751 34.4578 21.0174C34.5647 21.1713 34.8838 20.8505 34.9269 21.1459C34.9569 21.3643 34.5732 21.2013 34.607 21.3643C34.6408 21.5274 34.9007 21.4374 34.91 21.6128C34.8871 21.8284 34.7835 22.0274 34.6201 22.1697C34.4494 22.2813 33.5336 22.4005 33.4483 22.5982C33.3803 22.7858 33.2775 22.9588 33.1453 23.1082C32.9915 23.2713 32.2588 23.7082 32.2549 23.8236C32.2549 24.0936 32.6086 23.7505 32.707 23.6436C32.9015 23.5267 33.1055 23.4263 33.3168 23.3436C33.6405 23.1551 33.7689 23.8051 33.419 23.8274C33.2014 23.8274 33.0184 24.4574 32.6778 24.3413C32.5925 24.3067 32.3495 24.1567 32.2987 24.3159C32.248 24.4751 32.8062 24.5044 32.9808 24.6236C33.4067 24.919 32.6401 24.8982 32.5117 24.979C32.3833 25.0597 32.4518 25.2359 32.6225 25.1636C32.7932 25.0913 33.0069 24.9236 33.1123 25.202C33.2483 25.5867 32.4902 26.9713 32.2595 26.8259C32.1357 26.749 32.0127 26.8605 31.8974 26.9074C32.0519 27.2135 32.2407 27.501 32.4602 27.7644C32.6094 27.5159 32.8447 27.1643 32.9462 27.1605C33.0477 27.1567 33.04 27.0451 33.0953 26.9459C33.1507 26.8467 33.326 26.9459 33.3383 26.7874C33.3506 26.629 33.7643 26.3843 33.8196 26.1405C33.845 26.012 33.6874 25.879 33.7512 25.772C33.7732 25.728 33.8043 25.6891 33.8425 25.6581C33.8807 25.627 33.9251 25.6045 33.9727 25.592C34.0534 25.562 34.2541 25.7636 34.3133 25.6774C34.3725 25.5913 34.6716 25.6774 34.8969 25.802C35.0038 25.8667 35.2044 25.802 35.3229 25.9651C35.4936 26.2097 35.3229 26.2305 35.3229 26.282C35.3229 26.3336 35.4251 26.252 35.472 26.282C35.5189 26.312 35.0461 26.7105 35.0876 26.869C34.9659 27.2921 34.7615 27.6869 34.4863 28.0305C34.3456 28.1674 33.9665 28.0305 33.8427 28.0305C33.7189 28.0305 33.6766 28.1844 33.4636 28.1336C33.2765 28.1128 33.0876 28.1533 32.9254 28.249C33.7147 28.958 34.7373 29.3514 35.798 29.3543C36.03 29.3536 36.2615 29.3335 36.4901 29.2943C36.6212 29.1084 36.7008 28.891 36.7207 28.6643C36.717 28.529 36.7373 28.3941 36.7807 28.2659C36.8361 28.1713 37.2067 27.7344 37.3305 27.7428C37.4543 27.7513 37.5396 27.8543 37.7149 27.7982C38.0648 27.6913 38.2778 27.7982 38.2816 27.9313C38.2855 28.0644 37.8556 28.0813 37.8556 28.2013C37.8556 28.3213 38.1878 28.4067 38.2816 28.2867C38.3531 28.2107 38.4021 28.1165 38.4231 28.0143C38.4441 27.9122 38.4364 27.8062 38.4008 27.7082C38.2601 27.5328 38.2685 27.4597 38.4692 27.5282C38.593 27.5713 38.593 27.0997 38.7076 26.8944C38.8222 26.689 38.4139 26.8213 38.2216 26.8474C38.0294 26.8736 37.8933 26.4874 37.8895 26.3544C37.8856 26.2213 38.2301 26.6974 38.4054 26.7059C38.5087 26.6972 38.6063 26.6549 38.6832 26.5855C38.7602 26.516 38.8122 26.4232 38.8314 26.3213C38.8314 26.1543 38.4562 26.1328 38.4054 25.9274C38.3716 25.8159 38.7084 25.9274 38.6822 25.8159C38.6561 25.7043 38.716 25.4905 38.5031 25.3874C38.2901 25.2844 38.0771 24.612 37.9279 24.5644C37.7788 24.5167 37.6511 24.7313 37.5611 24.8043C37.4712 24.8774 37.3228 24.7528 37.3989 24.6797C37.5737 24.5469 37.7188 24.3789 37.8249 24.1867C37.9141 23.8951 38.2862 24.1867 38.217 23.7967C38.1478 23.4067 37.7911 23.4451 37.9487 23.2313C37.9808 23.1939 38.0035 23.1494 38.0148 23.1015C38.0262 23.0535 38.0259 23.0035 38.0139 22.9557C38.0019 22.9079 37.9786 22.8637 37.946 22.8268C37.9134 22.7899 37.8724 22.7613 37.8264 22.7436C37.7643 22.7209 37.6965 22.7193 37.6334 22.739C37.4673 22.769 37.2966 22.499 37.2751 22.2674C37.2751 22.1343 36.8999 22.1559 36.913 22.019C36.9429 21.7405 36.5285 21.7113 36.274 21.732C35.9633 21.6649 35.6824 21.4996 35.4728 21.2605C35.4174 21.162 35.0468 21.3459 35.1829 20.969C35.319 20.592 35.6443 21.0374 35.7927 20.9305C35.8444 20.8983 35.8817 20.8474 35.8967 20.7883C35.9118 20.7292 35.9034 20.6666 35.8734 20.6136L35.8004 20.6667ZM19.3065 7.71358L22.0131 10.4344C25.5911 7.00801 30.3162 5.0374 35.2675 4.90666V1.05435C29.2929 1.17337 23.5853 3.55286 19.2942 7.71358H19.3065ZM11.9335 24.4982H15.7688C15.8959 19.531 17.8539 14.7862 21.2665 11.1759L18.543 8.45512C14.4053 12.7837 12.045 18.51 11.9304 24.4982H11.9335Z" fill="#009EDB"/>
<path id="United Nations outlined" d="M96.0072 3.48894H101.04V19.5459C101.04 22.3756 100.159 24.5205 98.3977 25.9805C96.5013 27.4867 94.1277 28.2624 91.7082 28.1666C89.2791 28.2674 86.8946 27.4916 84.9895 25.9805C83.2431 24.523 82.3683 22.3782 82.3652 19.5459V3.48894H87.407V19.5459C87.407 21.1505 87.7878 22.3148 88.5496 23.0389C89.4544 23.7424 90.5677 24.1243 91.7136 24.1243C92.8596 24.1243 93.9728 23.7424 94.8777 23.0389C95.6381 22.3128 96.0157 21.1459 96.0157 19.5459L96.0072 3.48894ZM112.18 13.3151C111.559 13.2859 110.942 13.4335 110.401 13.7408C109.86 14.0481 109.417 14.5024 109.123 15.0512V27.8143H104.289V9.73663H108.838L109.003 11.8082C109.622 11.0284 110.415 10.4046 111.319 9.98662C112.222 9.56865 113.211 9.36817 114.206 9.40125C114.964 9.36731 115.722 9.48598 116.434 9.75024C117.146 10.0145 117.798 10.419 118.351 10.9397C119.396 11.9612 119.919 13.7482 119.923 16.3005V27.8143H115.055V16.2859C115.107 15.8629 115.068 15.4337 114.94 15.0273C114.811 14.6209 114.597 14.2468 114.312 13.9305C113.696 13.4814 112.941 13.2635 112.18 13.3151ZM123.083 5.05971C123.074 4.72741 123.136 4.39702 123.263 4.08998C123.39 3.78293 123.581 3.50608 123.822 3.2774C124.376 2.81652 125.074 2.5642 125.794 2.5642C126.515 2.5642 127.213 2.81652 127.767 3.2774C128.236 3.75357 128.5 4.3955 128.5 5.06432C128.5 5.73315 128.236 6.37508 127.767 6.85125C127.212 7.30976 126.514 7.56055 125.794 7.56055C125.074 7.56055 124.377 7.30976 123.822 6.85125C123.578 6.62218 123.387 6.34395 123.259 6.03506C123.132 5.72617 123.072 5.39368 123.083 5.05971ZM128.234 9.72894V27.8059H123.371V9.73663L128.234 9.72894ZM140.81 27.6912C139.873 28.0013 138.892 28.1533 137.905 28.1412C136.535 28.2141 135.188 27.7736 134.125 26.9059C133.191 26.0823 132.722 24.7141 132.719 22.8012V13.2628H130.048V9.73663H132.707V5.27509H137.524V9.73663H140.599V13.2636H137.524V22.2974C137.486 22.5675 137.509 22.8426 137.589 23.103C137.67 23.3635 137.807 23.6029 137.991 23.8043C138.401 24.0755 138.889 24.204 139.38 24.1697C139.645 24.1726 139.91 24.1584 140.174 24.1274C140.412 24.102 140.598 24.072 140.781 24.0382L140.81 27.6912ZM158.274 24.8689C157.566 25.8018 156.665 26.5706 155.632 27.1228C154.275 27.8454 152.752 28.1974 151.216 28.1436C148.384 28.1436 146.184 27.2946 144.615 25.5966C143.045 23.924 142.192 21.7023 142.241 19.4082V18.7543C142.142 16.3092 142.955 13.9144 144.521 12.0351C145.288 11.1644 146.24 10.4768 147.307 10.0229C148.374 9.5689 149.53 9.36016 150.688 9.41202C153.287 9.41202 155.269 10.2256 156.634 11.8528C158.068 13.6876 158.792 15.9784 158.672 18.3043V20.3589H147.126C147.246 21.4351 147.737 22.4359 148.514 23.1897C149.326 23.9254 150.394 24.3122 151.488 24.2666C152.323 24.3001 153.155 24.1344 153.914 23.7832C154.673 23.432 155.338 22.9053 155.854 22.2466L158.274 24.8689ZM150.638 13.2897C150.188 13.2634 149.739 13.3434 149.326 13.5233C148.913 13.7031 148.548 13.9778 148.261 14.3251C147.661 15.1117 147.285 16.046 147.173 17.0289H153.892V16.6636C153.903 15.7897 153.617 14.9381 153.081 14.2482C152.774 13.9127 152.394 13.6525 151.97 13.4876C151.547 13.3228 151.091 13.2577 150.638 13.2974V13.2897ZM172.12 27.8143L171.889 25.9128C171.353 26.5971 170.678 27.1611 169.91 27.5682C169.086 27.976 168.175 28.1756 167.256 28.1497C166.237 28.1919 165.224 27.975 164.312 27.5192C163.4 27.0634 162.618 26.3837 162.04 25.5436C160.75 23.6097 160.102 21.3179 160.189 18.9943V18.642C160.079 16.2739 160.729 13.9328 162.045 11.9612C162.637 11.1309 163.427 10.4626 164.345 10.0176C165.262 9.57258 166.276 9.36515 167.294 9.41432C168.114 9.39368 168.928 9.5559 169.677 9.8892C170.427 10.2225 171.092 10.7185 171.626 11.3412V2.14355H176.476V27.8143H172.12ZM165.023 18.9812C164.985 20.2582 165.248 21.5261 165.792 22.682C166.032 23.1753 166.416 23.5848 166.892 23.8573C167.369 24.1297 167.916 24.2525 168.463 24.2097C169.116 24.2488 169.766 24.0915 170.329 23.758C170.893 23.4245 171.343 22.93 171.623 22.3382V15.1843C171.352 14.5931 170.909 14.098 170.35 13.7645C169.792 13.431 169.146 13.2748 168.497 13.3166C167.946 13.2807 167.395 13.4101 166.917 13.6883C166.439 13.9666 166.055 14.3811 165.813 14.8789C165.254 16.0586 164.983 17.3541 165.023 18.6589V18.9812ZM102.411 32.5636V56.8974H97.3958L87.6276 40.8743V56.8974H82.5959V32.5636H87.6315L97.4005 48.6051V32.5636H102.411ZM116.512 56.8974C116.279 56.3832 116.116 55.8398 116.028 55.282C115.506 55.8467 114.886 56.3122 114.198 56.6559C113.346 57.0657 112.408 57.2636 111.463 57.2328C109.869 57.2802 108.314 56.736 107.097 55.7051C106.529 55.2328 106.075 54.6382 105.768 53.9657C105.462 53.2932 105.312 52.5601 105.329 51.8212C105.291 50.9691 105.466 50.1211 105.836 49.3529C106.207 48.5848 106.762 47.9206 107.452 47.4197C108.868 46.3756 110.947 45.8536 113.687 45.8536H115.867V44.8005C115.902 44.0797 115.674 43.3707 115.225 42.8059C114.962 42.5388 114.644 42.3336 114.292 42.2051C113.94 42.0766 113.564 42.028 113.191 42.0628C111.466 42.0628 110.6 42.7843 110.6 44.2359H105.733C105.741 43.4439 105.934 42.6648 106.297 41.9609C106.66 41.257 107.183 40.6478 107.823 40.182C109.435 38.9799 111.417 38.3794 113.425 38.4843C115.283 38.4169 117.109 38.976 118.611 40.072C119.31 40.643 119.862 41.3738 120.221 42.2028C120.579 43.0318 120.733 43.9349 120.67 44.8359V52.4743C120.654 53.3087 120.715 54.1427 120.853 54.9659C120.955 55.5345 121.136 56.0861 121.391 56.6043V56.8974H116.512ZM112.514 53.5397C113.246 53.5637 113.969 53.3751 114.596 52.9966C115.098 52.7067 115.52 52.2968 115.826 51.8036V48.6628H113.854C112.849 48.576 111.849 48.8649 111.045 49.4736C110.761 49.7209 110.534 50.0277 110.38 50.3723C110.227 50.7169 110.151 51.091 110.158 51.4682C110.15 51.746 110.201 52.0224 110.309 52.2787C110.417 52.5349 110.578 52.7651 110.783 52.9536C111.264 53.3635 111.885 53.5704 112.516 53.5305L112.514 53.5397ZM133.002 56.7659C132.573 56.9067 132.135 57.0159 131.69 57.0928C131.162 57.1784 130.628 57.2195 130.093 57.2159C128.723 57.2887 127.375 56.8482 126.313 55.9805C125.378 55.1569 124.91 53.7874 124.907 51.872V42.3259H122.233V38.7989H124.892V34.3505H129.725V38.812H132.801V42.3266H129.725V51.3805C129.688 51.6506 129.71 51.9257 129.791 52.1861C129.872 52.4466 130.009 52.686 130.193 52.8874C130.603 53.1586 131.091 53.287 131.581 53.2528C131.847 53.259 132.112 53.2462 132.376 53.2143C132.639 53.1759 132.8 53.1551 132.991 53.1213L133.002 56.7659ZM135.028 34.1259C135.018 33.7914 135.079 33.4585 135.206 33.1491C135.333 32.8396 135.525 32.5606 135.767 32.3305C136.323 31.872 137.02 31.6212 137.74 31.6212C138.46 31.6212 139.157 31.872 139.713 32.3305C140.182 32.8066 140.445 33.4486 140.445 34.1174C140.445 34.7862 140.182 35.4282 139.713 35.9043C139.157 36.3628 138.46 36.6136 137.74 36.6136C137.02 36.6136 136.323 36.3628 135.767 35.9043C135.528 35.6785 135.339 35.4051 135.212 35.1018C135.084 34.7984 135.022 34.4717 135.028 34.1428V34.1259ZM140.18 38.7951V56.872H135.331V38.812L140.18 38.7951ZM142.948 48.0182V47.6659C142.867 45.2747 143.662 42.9363 145.185 41.0912C146.677 39.3338 148.784 38.4566 151.505 38.4597C154.257 38.4597 156.38 39.3369 157.875 41.0912C159.401 42.9338 160.193 45.2749 160.1 47.6659V48.0182C160.184 50.4056 159.391 52.7411 157.872 54.5843C156.388 56.3279 154.276 57.1997 151.535 57.1997C148.794 57.1997 146.671 56.3254 145.165 54.5766C143.632 52.7516 142.834 50.4203 142.927 48.0382L142.948 48.0182ZM147.792 47.6659V48.0182C147.753 49.3203 148.044 50.6112 148.638 51.7705C148.922 52.28 149.346 52.6968 149.861 52.9708C150.376 53.2448 150.958 53.3643 151.539 53.3151C152.116 53.3659 152.696 53.2468 153.206 52.9723C153.717 52.6979 154.136 52.2801 154.412 51.7705C155.006 50.6112 155.297 49.3203 155.258 48.0182V47.6659C155.29 46.3713 154.999 45.0891 154.412 43.9351C154.134 43.4186 153.711 42.9942 153.196 42.7138C152.681 42.4333 152.095 42.309 151.511 42.3559C150.929 42.3071 150.347 42.4309 149.835 42.7118C149.324 42.9927 148.907 43.4182 148.636 43.9351C148.048 45.098 147.757 46.3885 147.79 47.6912L147.792 47.6659ZM170.421 42.3982C169.799 42.369 169.181 42.5165 168.639 42.8238C168.097 43.131 167.653 43.5853 167.359 44.1343V56.8974H162.53V38.812H167.062L167.227 40.8836C167.844 40.102 168.636 39.4769 169.539 39.0587C170.442 38.6405 171.431 38.4411 172.426 38.4766C173.189 38.44 173.951 38.5573 174.668 38.8216C175.384 39.0859 176.04 39.4918 176.596 40.0151C177.641 41.0366 178.165 42.8236 178.168 45.3759V56.8974H173.296V45.3589C173.348 44.936 173.309 44.5067 173.181 44.1003C173.052 43.694 172.838 43.3199 172.553 43.0036C171.936 42.5543 171.181 42.3364 170.421 42.3882L170.421 42.3982ZM191.143 51.8889C191.141 51.6303 191.075 51.3763 190.95 51.1496C190.826 50.923 190.647 50.7309 190.43 50.5905C189.507 50.0776 188.5 49.7355 187.456 49.5805C185.811 49.2764 184.243 48.6426 182.848 47.7174C182.26 47.3216 181.782 46.7814 181.462 46.1485C181.141 45.5155 180.988 44.811 181.018 44.102C181.024 43.345 181.2 42.599 181.531 41.9183C181.863 41.2377 182.341 40.6395 182.933 40.1674C184.424 38.9617 186.311 38.3562 188.225 38.4697C190.211 38.3558 192.175 38.9415 193.775 40.1251C194.414 40.6162 194.929 41.2494 195.28 41.9745C195.631 42.6995 195.808 43.4965 195.797 44.302H190.953C190.96 43.989 190.904 43.6777 190.79 43.3862C190.675 43.0948 190.504 42.829 190.286 42.6043C190.002 42.3549 189.67 42.1654 189.311 42.0472C188.952 41.929 188.573 41.8846 188.196 41.9166C187.523 41.8761 186.856 42.0744 186.315 42.4766C186.102 42.6417 185.931 42.8535 185.814 43.0957C185.697 43.3379 185.637 43.6038 185.64 43.8728C185.643 44.1311 185.714 44.3841 185.844 44.6072C185.974 44.8303 186.16 45.0158 186.383 45.1459C187.202 45.587 188.094 45.8738 189.017 45.992C190.737 46.2922 192.389 46.8973 193.897 47.7789C194.543 48.1901 195.066 48.7697 195.408 49.4554C195.749 50.1412 195.898 50.9073 195.838 51.6712C195.842 52.4503 195.657 53.2187 195.298 53.9102C194.939 54.6016 194.417 55.1952 193.778 55.6397C192.152 56.7634 190.2 57.3158 188.227 57.2105C185.696 57.2105 183.762 56.5625 182.425 55.2666C181.824 54.7515 181.335 54.1178 180.989 53.4051C180.643 52.6923 180.448 51.9159 180.416 51.1243H185.016C185.001 51.5256 185.09 51.9239 185.273 52.2812C185.456 52.6386 185.727 52.9432 186.061 53.1659C186.74 53.5852 187.526 53.799 188.325 53.7812C190.185 53.7859 191.14 53.1489 191.14 51.8797L191.143 51.8889Z" fill="black"/>
</g>
<defs>
<clipPath id="clip0_13501_17428">
<rect width="196.071" height="60" fill="white"/>
</clipPath>
</defs>
</svg>
