<?xml version="1.0" encoding="UTF-8" standalone="no"?>
<!-- Generator: Adobe Illustrator 19.0.0, SVG Export Plug-In . SVG Version: 6.00 Build 0)  -->

<svg
   version="1.1"
   id="Layer_1"
   x="0px"
   y="0px"
   viewBox="0 0 512 512"
   style="enable-background:new 0 0 512 512;"
   xml:space="preserve"
   sodipodi:docname="caution-svgrepo-com.svg"
   inkscape:version="1.1.1 (3bf5ae0d25, 2021-09-20)"
   xmlns:inkscape="http://www.inkscape.org/namespaces/inkscape"
   xmlns:sodipodi="http://sodipodi.sourceforge.net/DTD/sodipodi-0.dtd"
   xmlns="http://www.w3.org/2000/svg"
   xmlns:svg="http://www.w3.org/2000/svg"><defs
   id="defs32973" /><sodipodi:namedview
   id="namedview32971"
   pagecolor="#ffffff"
   bordercolor="#666666"
   borderopacity="1.0"
   inkscape:pageshadow="2"
   inkscape:pageopacity="0.0"
   inkscape:pagecheckerboard="0"
   showgrid="false"
   inkscape:zoom="1.6445312"
   inkscape:cx="255.69596"
   inkscape:cy="256.30404"
   inkscape:window-width="1920"
   inkscape:window-height="1027"
   inkscape:window-x="1912"
   inkscape:window-y="-8"
   inkscape:window-maximized="1"
   inkscape:current-layer="Layer_1" />
<g
   id="g32902">
	<path
   style="fill:#6B4841;"
   d="M79.448,247.172h35.31v-35.31h-35.31V247.172z"
   id="path32894" />
	<path
   style="fill:#6B4841;"
   d="M397.241,247.172h35.31v-35.31h-35.31V247.172z"
   id="path32896" />
	<path
   style="fill:#6B4841;"
   d="M414.897,70.621c-6.179,0-12.359-1.766-17.655-5.297v40.607h35.31V65.324   C427.255,68.855,421.076,70.621,414.897,70.621"
   id="path32898" />
	<path
   style="fill:#6B4841;"
   d="M97.103,70.621c-6.179,0-12.359-1.766-17.655-5.297v40.607h35.31V65.324   C109.462,68.855,103.283,70.621,97.103,70.621"
   id="path32900" />
</g>
<path
   style="fill:#556080;"
   d="M0,211.862h512V105.931H0V211.862z"
   id="path32904" />
<path
   style="fill:#ff8080"
   d="M132.414,35.31c0-19.421-15.89-35.31-35.31-35.31s-35.31,15.89-35.31,35.31s15.89,35.31,35.31,35.31  S132.414,54.731,132.414,35.31"
   id="path32906" />
<g
   id="g32912">
	<path
   style="fill:#6B4841;"
   d="M79.448,512h35.31V353.103h-35.31V512z"
   id="path32908" />
	<path
   style="fill:#6B4841;"
   d="M397.241,512h35.31V353.103h-35.31V512z"
   id="path32910" />
</g>
<path
   style="fill:#4C2C28;"
   d="M114.759,467.862h282.483v-52.966H114.759V467.862z"
   id="path32914" />
<g
   id="g32920">
	<path
   style="fill:#ECBA16;"
   d="M67.972,105.931L0,173.903v37.959h87.393l105.931-105.931H67.972z"
   id="path32916" />
	<path
   style="fill:#ECBA16;"
   d="M211.862,211.862h124.469l105.931-105.931H317.793L211.862,211.862z"
   id="path32918" />
</g>
<path
   style="fill:#556080;"
   d="M336.331,211.862H460.8l50.317-50.317v-55.614h-69.738L336.331,211.862z"
   id="path32922" />
<path
   style="fill:#ECBA16;"
   d="M512,211.862v-50.317l-50.317,50.317H512z"
   id="path32924" />
<path
   style="fill:#556080;"
   d="M0,353.103h512V247.172H0V353.103z"
   id="path32926" />
<g
   id="g32932">
	<path
   style="fill:#ECBA16;"
   d="M67.972,247.172L0,315.145v37.959h87.393l105.931-105.931H67.972z"
   id="path32928" />
	<path
   style="fill:#ECBA16;"
   d="M211.862,353.103h124.469l105.931-105.931H317.793L211.862,353.103z"
   id="path32930" />
</g>
<path
   style="fill:#556080;"
   d="M336.331,353.103H460.8l50.317-50.317v-55.614h-69.738L336.331,353.103z"
   id="path32934" />
<path
   style="fill:#ECBA16;"
   d="M512,353.103v-50.317l-50.317,50.317H512z"
   id="path32936" />
<path
   style="fill:#ff8080"
   d="M379.586,35.31c0-19.421,15.89-35.31,35.31-35.31c19.421,0,35.31,15.89,35.31,35.31  s-15.89,35.31-35.31,35.31C395.476,70.621,379.586,54.731,379.586,35.31"
   id="path32938" />
<g
   id="g32940">
</g>
<g
   id="g32942">
</g>
<g
   id="g32944">
</g>
<g
   id="g32946">
</g>
<g
   id="g32948">
</g>
<g
   id="g32950">
</g>
<g
   id="g32952">
</g>
<g
   id="g32954">
</g>
<g
   id="g32956">
</g>
<g
   id="g32958">
</g>
<g
   id="g32960">
</g>
<g
   id="g32962">
</g>
<g
   id="g32964">
</g>
<g
   id="g32966">
</g>
<g
   id="g32968">
</g>
</svg>
