<?xml version="1.0" encoding="UTF-8" standalone="no"?>
<!-- Generator: Adobe Illustrator 18.0.0, SVG Export Plug-In . SVG Version: 6.00 Build 0)  -->

<svg
   version="1.1"
   id="Capa_1"
   x="0px"
   y="0px"
   viewBox="0 0 325 325"
   style="enable-background:new 0 0 325 325;"
   xml:space="preserve"
   sodipodi:docname="inspiration-art-svgrepo-com.svg"
   inkscape:version="1.1.1 (3bf5ae0d25, 2021-09-20)"
   xmlns:inkscape="http://www.inkscape.org/namespaces/inkscape"
   xmlns:sodipodi="http://sodipodi.sourceforge.net/DTD/sodipodi-0.dtd"
   xmlns="http://www.w3.org/2000/svg"
   xmlns:svg="http://www.w3.org/2000/svg"
   xmlns:rdf="http://www.w3.org/1999/02/22-rdf-syntax-ns#"
   xmlns:cc="http://creativecommons.org/ns#"
   xmlns:dc="http://purl.org/dc/elements/1.1/"><title
   id="title32538">Inspiration</title><defs
   id="defs43" /><sodipodi:namedview
   id="namedview41"
   pagecolor="#ffffff"
   bordercolor="#666666"
   borderopacity="1.0"
   inkscape:pageshadow="2"
   inkscape:pageopacity="0.0"
   inkscape:pagecheckerboard="0"
   showgrid="false"
   inkscape:zoom="2.5907692"
   inkscape:cx="86.267815"
   inkscape:cy="162.30701"
   inkscape:window-width="1920"
   inkscape:window-height="1027"
   inkscape:window-x="1912"
   inkscape:window-y="-8"
   inkscape:window-maximized="1"
   inkscape:current-layer="Capa_1" />
<g
   id="g8"
   style="fill:#ff9955;opacity:1;stroke:#ff8635;stroke-opacity:1">
	<path
   d="M324.268,160.718l-46.131-46.13V49.349c0-1.381-1.119-2.5-2.5-2.5h-65.24L164.268,0.718c-0.938-0.938-2.598-0.938-3.535,0   l-46.129,46.131H49.361c-1.381,0-2.5,1.119-2.5,2.5v65.239l-46.129,46.13c-0.976,0.977-0.976,2.559,0,3.535l46.129,46.13v65.239   c0,1.381,1.119,2.5,2.5,2.5h65.242l46.129,46.131c0.469,0.469,1.104,0.732,1.768,0.732c0.663,0,1.299-0.264,1.768-0.732   l46.129-46.131h65.24c1.381,0,2.5-1.119,2.5-2.5v-65.239l46.131-46.13c0.469-0.469,0.732-1.104,0.732-1.768   C325,161.822,324.737,161.186,324.268,160.718z M242.17,195.485v46.668h-46.672l-32.998,33l-32.998-33H82.828v-46.668l-32.996-33   l32.996-33V82.817h46.674l32.998-33l32.998,33h46.672v46.668l32.998,33L242.17,195.485z"
   id="path2"
   style="fill:#ff9955;stroke:#ff8635;stroke-opacity:1" />
	<path
   d="M228.893,96.097h-38.896L162.5,68.596l-27.498,27.501H96.107v38.889l-27.498,27.5l27.498,27.5v38.889h38.895l27.498,27.501   l27.496-27.501h38.896v-38.889l27.498-27.5l-27.498-27.5V96.097z M210.228,174.692h-18.262l12.912,12.91l0.664,17.926   l-17.926-0.664l-12.912-12.911v18.259L162.5,223.356l-12.205-13.145v-18.261l-12.912,12.913l-17.926,0.664l0.664-17.926   l12.912-12.912l-18.26,0.002l-13.144-12.207l13.144-12.205l18.26-0.002l-12.912-12.91l-0.664-17.926l17.926,0.664l12.912,12.912   v-18.26l12.205-13.145l12.205,13.145v18.26l12.912-12.912l17.926-0.664l-0.664,17.926l-12.912,12.912h18.262l13.141,12.205   L210.228,174.692z"
   id="path4"
   style="fill:#ff9955;stroke:#ff8635;stroke-opacity:1" />
	<polygon
   points="150.768,134.162 134.174,150.755 134.174,174.217 150.766,190.809 174.232,190.809 190.822,174.219    190.822,150.753 174.232,134.162  "
   id="polygon6"
   style="fill:#ff9955;stroke:#ff8635;stroke-opacity:1" />
</g>
<g
   id="g10">
</g>
<g
   id="g12">
</g>
<g
   id="g14">
</g>
<g
   id="g16">
</g>
<g
   id="g18">
</g>
<g
   id="g20">
</g>
<g
   id="g22">
</g>
<g
   id="g24">
</g>
<g
   id="g26">
</g>
<g
   id="g28">
</g>
<g
   id="g30">
</g>
<g
   id="g32">
</g>
<g
   id="g34">
</g>
<g
   id="g36">
</g>
<g
   id="g38">
</g>
<metadata
   id="metadata32536"><rdf:RDF><cc:Work
       rdf:about=""><dc:title>Inspiration</dc:title></cc:Work></rdf:RDF></metadata></svg>
