<?xml version="1.0" encoding="UTF-8" standalone="no"?>
<!-- Uploaded to SVGRepo https://www.svgrepo.com -->

<svg
   version="1.2"
   id="Layer_1"
   x="0px"
   y="0px"
   viewBox="0 0 256 256"
   xml:space="preserve"
   sodipodi:docname="organization-people-group-public-svgrepo-com.svg"
   inkscape:version="1.1.1 (3bf5ae0d25, 2021-09-20)"
   xmlns:inkscape="http://www.inkscape.org/namespaces/inkscape"
   xmlns:sodipodi="http://sodipodi.sourceforge.net/DTD/sodipodi-0.dtd"
   xmlns="http://www.w3.org/2000/svg"
   xmlns:svg="http://www.w3.org/2000/svg"><defs
   id="defs7" /><sodipodi:namedview
   id="namedview5"
   pagecolor="#ffffff"
   bordercolor="#666666"
   borderopacity="1.0"
   inkscape:pageshadow="2"
   inkscape:pageopacity="0.0"
   inkscape:pagecheckerboard="0"
   showgrid="false"
   inkscape:zoom="1.1628592"
   inkscape:cx="306.57194"
   inkscape:cy="171.55989"
   inkscape:window-width="1920"
   inkscape:window-height="1027"
   inkscape:window-x="1912"
   inkscape:window-y="-8"
   inkscape:window-maximized="1"
   inkscape:current-layer="Layer_1" />
<path
   d="M41,53.1c9.1,0,16.6,7.4,16.6,16.6S50.2,86.2,41,86.2s-16.6-7.4-16.6-16.6S31.9,53.1,41,53.1z M84.7,53.1  c9.1,0,16.6,7.4,16.6,16.6s-7.4,16.6-16.6,16.6s-16.6-7.4-16.6-16.6S75.6,53.1,84.7,53.1z M62.2,11.9c9.1,0,16.6,7.4,16.6,16.6  S71.4,45,62.2,45s-16.6-7.4-16.6-16.6S53.1,11.9,62.2,11.9z M106.9,11.9c9.1,0,16.6,7.4,16.6,16.6S116.1,45,106.9,45  s-16.6-7.4-16.6-16.6S97.8,11.9,106.9,11.9z M149.3,11.9c9.1,0,16.6,7.4,16.6,16.6S158.5,45,149.3,45s-16.6-7.4-16.6-16.6  S140.2,11.9,149.3,11.9z M191.5,11.9c9.1,0,16.6,7.4,16.6,16.6S200.7,45,191.5,45S175,37.6,175,28.5S182.4,11.9,191.5,11.9z   M171.1,53.1c9.1,0,16.6,7.4,16.6,16.6s-7.4,16.6-16.6,16.6c-9.1,0-16.6-7.4-16.6-16.6S161.9,53.1,171.1,53.1z M126.1,53.1  c9.1,0,16.6,7.4,16.6,16.6c0,9.1-7.4,16.6-16.6,16.6c-9.2,0-16.6-7.4-16.6-16.6C109.5,60.5,116.9,53.1,126.1,53.1z M214.6,53.1  c9.1,0,16.6,7.4,16.6,16.6c0,9.1-7.4,16.6-16.6,16.6c-9.2,0-16.6-7.4-16.6-16.6C198.1,60.5,205.5,53.1,214.6,53.1z M41.1,53.5  c9,0,16.3,7.3,16.3,16.3s-7.3,16.3-16.3,16.3s-16.3-7.3-16.3-16.3S32.1,53.5,41.1,53.5z M59.5,89.3H40.9H22.2  c-11.3,0-18.5,9.3-18.5,21.1V164c0,9.7,12.7,9.7,12.7,0v-50.2c0-1.2,1-2,2-2c1.2,0,2,0.8,2,2v121.8c0,5,4,9.1,9.1,9.1  c5,0,9.1-4,9.1-9.1v-60.6c0-1.2,1-2,2-2h0.4c1.2,0,2,1,2,2v60.6c0,5,4,9.1,9.1,9.1c5,0,9.1-4,9.1-9.1V113.7c0-1.2,1-2,2-2  c1.2,0,2,1,2,2v50.4c0,9.7,12.7,9.7,12.7,0v-53.6C78.2,98.6,71.1,89.3,59.5,89.3z M144.7,89.3h-18.7h-18.7  c-11.3,0-18.5,9.3-18.5,21.1V164c0,9.7,12.7,9.7,12.7,0v-50.2c0-1.2,1-2,2-2c1.2,0,2,0.8,2,2v121.8c0,5,4,9.1,9.1,9.1  c5,0,9.1-4,9.1-9.1v-60.6c0-1.2,1-2,2-2h0.4c1.2,0,2,1,2,2v60.6c0,5,4,9.1,9.1,9.1c5,0,9.1-4,9.1-9.1V113.7c0-1.2,1-2,2-2  c1.2,0,2,1,2,2v50.4c0,9.7,12.7,9.7,12.7,0v-53.6C163.4,98.6,156.3,89.3,144.7,89.3z M233.7,89.3h-18.7h-18.7  c-11.3,0-18.5,9.3-18.5,21.1V164c0,9.7,12.7,9.7,12.7,0v-50.2c0-1.2,1-2,2-2c1.2,0,2,0.8,2,2v121.8c0,5,4,9.1,9.1,9.1  c5,0,9.1-4,9.1-9.1v-60.6c0-1.2,1-2,2-2h0.4c1.2,0,2,1,2,2v60.6c0,5,4,9.1,9.1,9.1c5,0,9.1-4,9.1-9.1V113.7c0-1.2,1-2,2-2  c1.2,0,2,1,2,2v50.4c0,9.7,12.7,9.7,12.7,0v-53.6C252.4,98.6,245.3,89.3,233.7,89.3z"
   id="path2" />
<path
   style="fill:#eee8aa;stroke:#ff8635;stroke-width:0.859949"
   d="M 36.117872,84.854574 C 31.308216,82.97252 29.727115,81.671916 27.379985,77.666842 23.308746,70.719798 25.065891,61.258502 31.244399,56.859017 44.743774,47.246614 62.354372,61.205812 55.570215,76.141093 52.103677,83.772657 43.360986,87.688858 36.117872,84.854574 Z"
   id="path64" /><path
   style="fill:#eee8aa;stroke:#ff8635;stroke-width:0.859949"
   d="m 25.335032,242.9689 c -1.20084,-0.65332 -2.656523,-2.08899 -3.234849,-3.19038 -0.795169,-1.51435 -1.101465,-17.30605 -1.256451,-64.77883 l -0.204948,-62.7763 h -2.149873 -2.149874 l -0.429974,27.51838 c -0.236486,15.13511 -0.757799,28.02597 -1.158472,28.64636 -2.220359,3.43793 -8.1265122,2.68626 -9.9260415,-1.26328 -1.2900458,-2.83134 -1.3034647,-56.20076 -0.015641,-62.20567 1.152843,-5.375525 5.2082465,-10.856532 9.8102305,-13.258843 3.24052,-1.691605 4.784916,-1.795631 26.658429,-1.795631 25.379044,0 25.721342,0.05908 30.697571,5.29791 5.217439,5.492774 5.379604,6.590704 5.695305,38.559504 0.190636,19.30436 -0.02742,30.29901 -0.64182,32.3603 -1.614157,5.41552 -7.817792,6.4 -10.362842,1.64453 -0.545213,-1.01874 -0.879658,-11.76061 -0.879658,-28.25333 0,-22.60394 -0.19418,-26.77082 -1.289924,-27.68021 -1.029115,-0.85409 -1.550732,-0.85409 -2.579848,0 -1.124872,0.93357 -1.289924,9.04006 -1.289924,63.35428 0,67.61073 0.121682,65.85106 -4.705692,68.05055 -3.590724,1.63604 -6.239682,1.21212 -9.254917,-1.48112 l -2.808403,-2.50849 -0.429974,-32.96442 -0.429975,-32.96442 H 40.847594 38.69772 l -0.429974,32.96455 -0.429975,32.96455 -2.808403,2.50836 c -3.084016,2.75453 -6.193923,3.15605 -9.694336,1.25165 z"
   id="path103" /><path
   style="fill:#eee8aa;stroke:#ff8635;stroke-width:0.859949"
   d="m 109.85853,242.51514 c -1.53716,-0.93723 -2.88538,-1.80648 -2.99604,-1.93167 -0.11067,-0.1252 -0.4009,-29.05743 -0.64496,-64.29386 l -0.44376,-64.06622 h -2.14987 -2.14988 l -0.42997,27.51838 c -0.23649,15.13511 -0.7578,28.02597 -1.158474,28.64636 -1.246194,1.92956 -4.671392,2.79139 -6.956332,1.7503 -3.839819,-1.74954 -4.044931,-3.69611 -3.755808,-35.6437 0.306976,-33.92032 0.453754,-34.774876 6.924176,-40.313317 5.131628,-4.392481 9.111138,-4.950315 32.894788,-4.611083 22.84997,0.325915 23.57289,0.482595 28.58962,6.196334 4.79156,5.457286 4.94841,6.737656 4.94841,40.394486 v 30.81736 l -2.41282,2.0757 c -3.04226,2.61721 -4.44035,2.61029 -7.08572,-0.0351 l -2.11078,-2.11079 v -27.0222 c 0,-22.97063 -0.19341,-27.18271 -1.28993,-28.09274 -1.02911,-0.85409 -1.55073,-0.85409 -2.57984,0 -1.12485,0.93354 -1.28993,9.03082 -1.28993,63.27111 0,42.89154 -0.2897,62.8364 -0.93322,64.24879 -1.15126,2.52673 -5.03649,4.9123 -8.00037,4.9123 -1.23596,0 -3.4625,-1.11104 -5.02702,-2.50849 l -2.8084,-2.50849 -0.42997,-32.96442 -0.42998,-32.96442 h -2.14987 -2.14988 l -0.42997,32.96455 -0.42997,32.96455 -2.80841,2.50836 c -3.31165,2.95785 -6.37433,3.19496 -10.30582,0.79789 z"
   id="path142" /><path
   style="fill:#eee8aa;stroke:#ff8635;stroke-width:0.859949"
   d="m 121.00468,85.02424 c -1.55541,-0.448569 -4.29959,-2.287153 -6.09818,-4.085743 -6.378,-6.377993 -6.44805,-16.117151 -0.16116,-22.404041 5.86212,-5.862129 14.0228,-6.513474 20.73029,-1.654591 10.3287,7.482066 8.30676,22.778843 -3.67251,27.784101 -3.5403,1.479231 -6.56816,1.580251 -10.79844,0.360274 z"
   id="path181" /><path
   style="fill:#add8e6;stroke:#ff8635;stroke-width:0.859949"
   d="M 79.115339,84.748535 C 69.264701,81.13551 65.586162,68.918844 71.77598,60.374048 c 6.531688,-9.016732 19.663689,-8.717684 26.243912,0.597639 2.144158,3.035381 2.565518,4.461679 2.565518,8.684209 0,4.223633 -0.42276,5.653832 -2.577422,8.719548 -4.535961,6.453885 -11.899789,8.937938 -18.892649,6.373091 z"
   id="path220" /><path
   style="fill:#add8e6;stroke:#ff8635;stroke-width:0.859949"
   d="m 36.275934,83.88908 c -4.109991,-1.465807 -6.34071,-3.462098 -8.419087,-7.534318 -4.313781,-8.452104 0.263714,-18.833494 9.375063,-21.26189 11.26364,-3.002033 22.214065,8.872645 17.838706,19.344353 -1.84857,4.424249 -4.422334,7.128908 -8.633352,9.072418 -4.073404,1.879997 -5.775662,1.943562 -10.16133,0.379437 z"
   id="path296" /><path
   style="fill:#add8e6;stroke:#ff8635;stroke-width:0.859949"
   d="m 24.771498,241.2909 -2.412815,-2.07476 -0.496669,-63.49638 c -0.273168,-34.923 -0.563401,-63.59312 -0.644962,-63.71136 -0.08156,-0.11824 -1.301852,-0.21499 -2.711757,-0.21499 -1.966619,0 -2.656572,0.4505 -2.963364,1.93489 -0.219944,1.06419 -0.56267,13.68295 -0.761613,28.04169 -0.383835,27.70335 -0.366309,27.59603 -4.511551,27.62686 -0.9737888,0.007 -2.5216976,-0.53629 -3.4397979,-1.20786 -1.5986199,-1.16936 -1.6692731,-2.52518 -1.6692731,-32.03312 0,-33.60217 -0.00473,-33.56565 5.131815,-39.657444 4.674008,-5.543242 5.306109,-5.658346 30.741292,-5.597908 26.055737,0.06191 27.062136,0.278041 31.809226,6.831208 2.213508,3.055664 2.642335,4.615134 3.302926,12.011444 1.149399,12.86924 0.9349,52.6154 -0.302963,56.13836 -1.321999,3.76242 -4.108385,4.87161 -6.789154,2.70259 -1.969238,-1.59332 -1.978432,-1.70308 -2.406764,-28.73595 -0.385778,-24.34718 -0.584663,-27.29105 -1.934886,-28.63986 -1.432651,-1.43116 -1.577172,-1.43112 -3.009823,8.1e-4 -1.397556,1.39685 -1.535584,5.96771 -1.934886,64.07445 -0.393281,57.23063 -0.555915,62.7624 -1.905747,64.82149 -2.297921,3.50534 -6.099825,3.9061 -10.186825,1.0738 l -3.386516,-2.34685 -0.01174,-31.05621 c -0.0065,-17.08092 -0.24508,-31.92691 -0.530271,-32.9911 -0.379307,-1.41538 -1.157347,-1.93488 -2.897783,-1.93488 -1.740437,0 -2.518476,0.5195 -2.897784,1.93488 -0.285191,1.06419 -0.523813,15.91018 -0.530271,32.9911 l -0.01174,31.05621 -3.271033,2.26683 c -4.055376,2.81037 -6.267576,2.85574 -9.365265,0.19206 z"
   id="path335" /><path
   style="fill:#add8e6;stroke:#ff8635;stroke-width:0.859949"
   d="m 110.84515,242.0101 c -2.64243,-1.30371 -2.67348,-1.39683 -3.22036,-9.65485 -0.30371,-4.58614 -0.55846,-32.13755 -0.56611,-61.22533 -0.008,-29.08779 -0.25378,-54.33805 -0.54694,-56.1117 -0.47066,-2.84745 -0.81983,-3.22481 -2.98398,-3.22481 -1.84993,0 -2.54901,0.47447 -2.85084,1.93489 -0.21995,1.06419 -0.56267,13.68295 -0.761617,28.04169 -0.389717,28.12786 -0.294069,27.59943 -5.000592,27.62686 -4.575398,0.0267 -4.623867,-0.32319 -4.573974,-33.01506 0.0319,-20.90037 0.365171,-31.27422 1.08406,-33.74362 1.22629,-4.21234 6.131589,-9.298225 10.447863,-10.832498 3.46924,-1.233184 42.08502,-1.554635 47.55027,-0.395825 4.01647,0.851623 9.81188,6.633222 10.92792,10.901893 0.436,1.66763 1.06596,16.70901 1.39991,33.42529 l 0.60718,30.39324 -2.4936,2.03892 c -3.12363,2.55407 -3.89888,2.57425 -6.16648,0.1605 -1.7642,-1.8779 -1.83122,-2.80313 -2.08479,-28.77886 -0.23625,-24.20165 -0.40985,-26.98631 -1.7669,-28.34222 -1.43276,-1.43156 -1.57705,-1.43154 -3.00982,5.1e-4 -1.39794,1.39724 -1.53547,6.00011 -1.93489,64.757 l -0.42997,63.25285 -2.04363,1.65428 c -3.52242,2.85135 -5.83248,2.92965 -9.59082,0.32512 l -3.41466,-2.36636 -0.0118,-31.05621 c -0.006,-17.08092 -0.24508,-31.92691 -0.53027,-32.9911 -0.73293,-2.73493 -5.06263,-2.73493 -5.79557,0 -0.28519,1.06419 -0.52381,15.91018 -0.53027,32.9911 l -0.0117,31.05621 -3.27103,2.26683 c -3.76656,2.61022 -4.76434,2.71812 -8.4266,0.91126 z"
   id="path374" /><path
   style="fill:#add8e6;stroke:#ff8635;stroke-width:0.859949"
   d="m 120.82902,83.7651 c -6.23224,-2.702649 -9.66403,-7.712961 -9.66403,-14.109204 0,-6.944067 4.55607,-12.782239 11.41689,-14.629667 6.98928,-1.882017 14.83622,2.569953 17.68706,10.034769 1.29191,3.38282 1.35193,4.475125 0.43486,7.914458 -1.25945,4.723407 -4.39117,8.334459 -9.13155,10.529182 -4.15206,1.922341 -6.7649,1.985688 -10.74323,0.260462 z"
   id="path413" /><path
   style="fill:#add8e6;stroke:#ff8635;stroke-width:0.859949"
   d="m 165.11027,84.364588 c -11.1791,-5.175755 -13.42973,-18.616392 -4.43913,-26.510244 11.73618,-10.304502 28.92828,0.03351 26.00137,15.635242 -1.12253,5.983604 -9.20571,12.467575 -15.54259,12.467575 -1.41892,0 -4.12776,-0.716658 -6.01965,-1.592573 z"
   id="path452" /><path
   style="fill:#add8e6;stroke:#ff8635;stroke-width:0.859949"
   d="m 198.0169,241.71656 -2.8084,-2.50905 -0.2312,-63.70705 -0.2312,-63.70705 h -2.08897 -2.08897 l -0.25968,27.5939 -0.25968,27.59389 -2.41281,2.07436 c -3.05203,2.62391 -4.44011,2.60919 -7.12485,-0.0756 l -2.14992,-2.14992 0.25412,-32.03307 0.25412,-32.03306 2.38772,-4.061908 c 1.54835,-2.633998 3.81562,-4.901271 6.44962,-6.44962 l 4.0619,-2.387716 h 23.21863 c 23.1707,0 23.22655,0.0044 27.05318,2.149873 2.4518,1.374627 4.77753,3.675358 6.44962,6.380269 l 2.61508,4.230392 0.25634,31.01923 c 0.14098,17.06057 0.0381,31.88876 -0.22864,32.95153 -0.68872,2.74407 -4.06839,4.73962 -6.84626,4.04242 -4.50869,-1.13161 -4.79076,-3.01875 -4.79076,-32.05187 0,-27.21368 -0.10722,-28.11225 -3.22481,-27.02477 -0.84654,0.29529 -1.07522,13.56114 -1.07627,62.43464 -10e-4,57.3613 -0.11517,62.28747 -1.50491,65.06851 -2.93643,5.87615 -10.4647,6.63537 -14.32041,1.44421 -1.74422,-2.34834 -1.81049,-3.47952 -2.05619,-35.0963 l -0.25388,-32.66976 -2.32597,0.26836 -2.32596,0.26835 -0.4553,33.53803 c -0.25042,18.44591 -0.54065,33.64045 -0.64497,33.76565 -0.10431,0.12519 -1.44733,0.99444 -2.98449,1.93167 -3.9319,2.39732 -6.99424,2.16003 -10.30583,-0.79858 z"
   id="path491" /><path
   style="fill:#add8e6;stroke:#ff8635;stroke-width:0.859949"
   d="m 209.57946,85.02424 c -1.55541,-0.448569 -4.34058,-2.328141 -6.18927,-4.17683 -10.35883,-10.358829 -3.07545,-27.157748 11.72622,-27.046228 13.84472,0.104311 20.6231,17.23359 10.73325,27.123439 -4.47683,4.476829 -10.07289,5.886873 -16.2702,4.099619 z"
   id="path530" /><path
   style="fill:#add8e6;stroke:#ff8635;stroke-width:0.859949"
   d="m 186.96466,43.895491 c -6.61979,-2.006128 -11.10502,-8.234323 -11.10502,-15.420433 0,-5.309078 1.40351,-8.345167 5.53445,-11.97218 4.0729,-3.576052 8.84128,-4.823429 13.59942,-3.557516 10.15335,2.701321 15.23008,12.75501 11.06784,21.918162 -3.34148,7.356243 -11.65367,11.287578 -19.09669,9.031967 z"
   id="path569" /><path
   style="fill:#add8e6;stroke:#ff8635;stroke-width:0.859949"
   d="m 144.22331,43.746672 c -1.55541,-0.448569 -4.29959,-2.287153 -6.09818,-4.085743 -10.08417,-10.084168 -3.12168,-27.014167 11.13486,-27.07553 7.73502,-0.03329 15.00076,6.285085 16.02715,13.937416 0.97862,7.29611 -4.36056,15.287013 -11.54769,17.282894 -3.81633,1.059804 -5.67657,1.048263 -9.51614,-0.05904 z"
   id="path608" /><path
   style="fill:#add8e6;stroke:#ff8635;stroke-width:0.859949"
   d="m 101.60748,43.508373 c -4.282791,-1.585795 -7.280309,-4.396466 -9.257483,-8.680425 -4.186344,-9.070582 0.911346,-19.18299 11.026693,-21.87391 9.42005,-2.505955 19.49684,5.486713 19.49684,15.464421 0,10.854191 -11.21448,18.811731 -21.26605,15.089914 z"
   id="path647" /><path
   style="fill:#add8e6;stroke:#ff8635;stroke-width:0.859949"
   d="m 56.890111,43.508373 c -4.282787,-1.585795 -7.280305,-4.396466 -9.25748,-8.680425 -4.186344,-9.070582 0.911346,-19.18299 11.026693,-21.87391 9.420049,-2.505955 19.496841,5.486713 19.496841,15.464421 0,10.854191 -11.214476,18.811731 -21.266054,15.089914 z"
   id="path686" /></svg>
