<?xml version="1.0" encoding="iso-8859-1"?>
<!-- Uploaded to: SVG Repo, www.svgrepo.com, Generator: SVG Repo Mixer Tools -->
<svg height="800px" width="800px" version="1.1" id="Layer_1" xmlns="http://www.w3.org/2000/svg" xmlns:xlink="http://www.w3.org/1999/xlink" 
	 viewBox="0 0 512 512" xml:space="preserve">
<path style="fill:#A67C52;" d="M497.586,0v15.868c0,15.365-12.458,27.81-27.81,27.81h-62.517c-38.016,0-68.821,30.805-68.821,68.821
	v222.395c0,97.802-70.432,177.105-157.298,177.105S23.853,432.696,23.853,334.895c0-13.352,1.309-26.338,3.813-38.821h181.233
	v21.279c0,35.965,18.284,65.109,40.847,65.109c22.525,0,40.822-29.144,40.822-65.109V110.285C290.569,49.379,339.948,0,400.854,0
	H497.586z"/>
<path style="fill:#936841;" d="M61.765,334.888c0-13.343,1.31-26.328,3.812-38.816H27.665c-2.502,12.488-3.812,25.474-3.812,38.816
	c0,97.806,70.426,177.107,157.291,177.107c6.417,0,12.741-0.444,18.956-1.285C122.172,500.167,61.765,425.47,61.765,334.888z"/>
<path style="fill:#825836;" d="M210.411,344.326H23.852c-5.213,0-9.438-4.226-9.438-9.438c0-5.212,4.224-9.438,9.438-9.438h186.558
	c5.214,0,9.438,4.226,9.438,9.438C219.848,340.101,215.624,344.326,210.411,344.326z"/>
<g>
	<circle style="fill:#7EAF31;" cx="94.221" cy="231.858" r="24.853"/>
	<circle style="fill:#7EAF31;" cx="57.413" cy="149.119" r="33.347"/>
</g>
<path style="fill:#666666;" d="M497.586,0v15.868c0,15.365-12.458,27.81-27.81,27.81h-55.243V0H497.586z"/>
</svg>