<?xml version="1.0" encoding="UTF-8" standalone="no"?>
<!-- Generator: Adobe Illustrator 18.1.1, SVG Export Plug-In . SVG Version: 6.00 Build 0)  -->

<svg
   version="1.1"
   id="Capa_1"
   x="0px"
   y="0px"
   viewBox="0 0 18.566 18.566"
   style="enable-background:new 0 0 18.566 18.566;"
   xml:space="preserve"
   sodipodi:docname="process-graph-svgrepo-com.svg"
   inkscape:version="1.1.1 (3bf5ae0d25, 2021-09-20)"
   xmlns:inkscape="http://www.inkscape.org/namespaces/inkscape"
   xmlns:sodipodi="http://sodipodi.sourceforge.net/DTD/sodipodi-0.dtd"
   xmlns="http://www.w3.org/2000/svg"
   xmlns:svg="http://www.w3.org/2000/svg"><defs
   id="defs39" /><sodipodi:namedview
   id="namedview37"
   pagecolor="#ffffff"
   bordercolor="#666666"
   borderopacity="1.0"
   inkscape:pageshadow="2"
   inkscape:pageopacity="0.0"
   inkscape:pagecheckerboard="0"
   showgrid="false"
   inkscape:zoom="45.351718"
   inkscape:cx="4.9281485"
   inkscape:cy="9.2940249"
   inkscape:window-width="1920"
   inkscape:window-height="1027"
   inkscape:window-x="1912"
   inkscape:window-y="-8"
   inkscape:window-maximized="1"
   inkscape:current-layer="Capa_1" />
<g
   id="g4">
	<path
   style="fill:#030104;"
   d="M17.705,11.452h-0.73v-3.65c0.929-0.352,1.591-1.247,1.591-2.299c0-1.359-1.102-2.46-2.461-2.46   c-1.044,0-1.936,0.651-2.291,1.568h-1.668V4.522c0-0.475-0.384-0.86-0.859-0.86h-5.2c-0.475,0-0.859,0.386-0.859,0.86V4.61H3.566   V2.924c0-0.475-0.385-0.86-0.859-0.86H1.24c-0.475,0-0.859,0.385-0.859,0.86v5.199c0,0.476,0.385,0.859,0.859,0.859h1.467   c0.474,0,0.859-0.384,0.859-0.859V5.9h1.663v0.089c0,0.475,0.384,0.86,0.859,0.86h5.199c0.476,0,0.859-0.385,0.859-0.86V5.9h1.533   c0.168,1.032,0.977,1.848,2.006,2.025v3.527h-3.179c-0.475,0-0.859,0.385-0.859,0.858v0.089H9.851v-1.955   c0-0.474-0.386-0.859-0.86-0.859H7.524c-0.475,0-0.859,0.386-0.859,0.859v1.955H4.833c-0.284-1.046-1.237-1.815-2.372-1.815   C1.102,10.584,0,11.686,0,13.044c0,1.359,1.102,2.46,2.461,2.46c1.136,0,2.088-0.769,2.372-1.815h1.832v1.955   c0,0.476,0.385,0.859,0.859,0.859h1.467c0.474,0,0.86-0.384,0.86-0.859v-1.955h1.796v0.089c0,0.476,0.385,0.859,0.859,0.859h5.199   c0.476,0,0.86-0.384,0.86-0.859v-1.467C18.565,11.837,18.18,11.452,17.705,11.452z"
   id="path2" />
</g>
<g
   id="g6">
</g>
<g
   id="g8">
</g>
<g
   id="g10">
</g>
<g
   id="g12">
</g>
<g
   id="g14">
</g>
<g
   id="g16">
</g>
<g
   id="g18">
</g>
<g
   id="g20">
</g>
<g
   id="g22">
</g>
<g
   id="g24">
</g>
<g
   id="g26">
</g>
<g
   id="g28">
</g>
<g
   id="g30">
</g>
<g
   id="g32">
</g>
<g
   id="g34">
</g>
<path
   style="fill:#f98d65;stroke:#d76e6e;stroke-width:0.0220499;stroke-opacity:1;fill-opacity:1"
   d="m 7.2838777,16.451483 c -0.068685,-0.02223 -0.1598795,-0.06205 -0.2026538,-0.08849 -0.1250414,-0.07728 -0.2933115,-0.27771 -0.3488258,-0.415494 -0.050574,-0.125522 -0.051118,-0.136819 -0.05784,-1.201645 l -0.00679,-1.074932 H 5.7468623 4.8259525 l -0.038711,0.122807 C 4.5926703,14.410983 4.1196199,14.954018 3.527981,15.239291 3.0036602,15.492105 2.4550896,15.554285 1.8949928,15.42439 1.2747388,15.280543 0.70503082,14.863639 0.36590342,14.305424 0.00290277,13.707913 -0.08523006,12.938729 0.13435711,12.28459 0.37715563,11.561306 0.96737909,10.963115 1.669018,10.729214 c 0.379855,-0.12663 0.8667419,-0.163294 1.2324723,-0.09281 0.8757593,0.168778 1.5834507,0.783291 1.8758229,1.628842 l 0.051464,0.148837 h 0.9206559 0.9206558 v -1.00026 c 0,-0.584417 0.0093,-1.049317 0.022378,-1.118261 C 6.7369649,10.060923 6.896756,9.8332832 7.100967,9.7136075 7.2997522,9.5971118 7.3869083,9.5887018 8.3179936,9.5961725 c 0.8356244,0.0067 0.8576114,0.00801 0.9823057,0.058186 0.2536678,0.1020804 0.471428,0.3689455 0.5225897,0.6404335 0.013069,0.06935 0.022382,0.53499 0.022382,1.119031 v 1.00026 h 0.904045 0.904045 v -0.08357 c 0,-0.108016 0.05353,-0.312398 0.111664,-0.426352 0.06918,-0.135614 0.226357,-0.27918 0.391058,-0.357206 l 0.14775,-0.07 1.692328,-0.006 1.692328,-0.006 V 9.6908136 7.9167475 l -0.06064,-0.012929 C 14.700292,7.7060476 13.966354,7.0058034 13.737462,6.1002128 l -0.05102,-0.2018696 -0.773989,-0.00579 -0.773989,-0.00579 v 0.076372 c 0,0.3381444 -0.19541,0.6457314 -0.502722,0.7913175 l -0.14775,0.069995 H 8.6876532 5.8873183 L 5.7395684,6.7544431 C 5.4323657,6.608909 5.2368468,6.3012585 5.2368468,5.9634076 V 5.8873183 H 4.3989513 3.5610558 v 1.1325593 c 0,0.6735511 -0.00907,1.1806955 -0.022382,1.2513307 -0.051138,0.2713631 -0.2687755,0.5381415 -0.5225897,0.6405866 -0.1265202,0.051066 -0.1349316,0.051482 -1.0426193,0.051482 -0.9076878,0 -0.9160991,-4.145e-4 -1.0426194,-0.051482 C 0.67703091,8.8093498 0.45939342,8.5425714 0.40825529,8.2712083 c -0.0306368,-0.1625733 -0.0306368,-5.3328527 0,-5.4954261 0.0511381,-0.2713631 0.26877562,-0.5381416 0.52258971,-0.6405866 0.1265203,-0.051066 0.1349316,-0.051482 1.0426194,-0.051482 0.9076877,0 0.9160991,4.153e-4 1.0426193,0.051482 0.2538142,0.102445 0.4714516,0.3692235 0.5225897,0.6405866 0.012753,0.067671 0.022382,0.4922006 0.022382,0.9867321 V 4.6304751 H 4.3957532 5.2304508 L 5.2432845,4.4816384 C 5.2738255,4.1274454 5.480675,3.8474688 5.8001161,3.7279506 5.9236781,3.68172 5.9268473,3.6816761 8.7169253,3.6875124 l 2.7931127,0.00584 0.121274,0.057552 c 0.28376,0.1346605 0.474065,0.4086674 0.500181,0.7201742 l 0.01336,0.159394 h 0.833178 0.833179 l 0.102199,-0.2059089 c 0.286912,-0.5780621 0.778601,-1.0138979 1.392522,-1.2343379 0.479357,-0.1721224 1.078605,-0.1729033 1.591048,-0.00207 0.593655,0.1979032 1.10812,0.6522594 1.401837,1.2380494 0.435747,0.8690564 0.299085,1.9264443 -0.345582,2.6738575 -0.22601,0.262031 -0.61553,0.5481099 -0.887959,0.6521516 l -0.09789,0.037386 v 1.8381693 1.8381694 h 0.428008 c 0.354359,0 0.450539,0.007 0.558946,0.04075 0.243418,0.07576 0.410668,0.227752 0.529328,0.481038 l 0.06028,0.128681 0.0067,0.857342 c 0.0042,0.536477 -0.0019,0.897339 -0.0162,0.964213 -0.05653,0.263573 -0.224454,0.481764 -0.460045,0.597745 l -0.146936,0.07234 h -2.822849 -2.822848 l -0.132018,-0.06482 c -0.297348,-0.145992 -0.496404,-0.465269 -0.496404,-0.796212 v -0.07609 h -0.90305 -0.9030644 l -0.00649,1.074932 -0.00649,1.074932 -0.053108,0.132299 c -0.073382,0.182805 -0.2932842,0.402707 -0.4760889,0.476089 -0.1312691,0.05269 -0.1391665,0.05315 -1.0142946,0.05792 -0.8031464,0.0044 -0.8931595,0.0012 -1.0068776,-0.03561 z"
   id="path115" /></svg>
