<?xml version="1.0" encoding="iso-8859-1"?>
<!-- Uploaded to: SVG Repo, www.svgrepo.com, Generator: SVG Repo Mixer Tools -->
<svg height="800px" width="800px" version="1.1" id="Layer_1" xmlns="http://www.w3.org/2000/svg" xmlns:xlink="http://www.w3.org/1999/xlink" 
	 viewBox="0 0 512.132 512.132" xml:space="preserve">
<g transform="translate(0 1)">
	<g>
		<path style="fill:#FFE100;" d="M256.05,23.025l-42.667-15.36v0.853v68.267c0,21.333,17.067,38.4,38.4,38.4
			c1.707,0,2.56,0,4.267-0.853V23.025z"/>
		<path style="fill:#FFE100;" d="M256.05,46.919l42.667-15.36v0.853v44.373c0,21.333-17.067,38.4-38.4,38.4
			c-1.707,0-2.56,0-4.267-0.853V46.919z"/>
		<path style="fill:#FFE100;" d="M256.05,200.519c28.16,0,51.2-23.04,51.2-51.2C279.09,149.319,256.05,172.359,256.05,200.519"/>
	</g>
	<path style="fill:#FFA800;" d="M154.503,295.239c1.707,0,3.413,0,5.12,1.707c15.36,11.947,34.987,17.92,53.76,17.92h30.72h3.413
		c21.333,0,41.813,10.24,54.613,28.16c17.92,27.307-11.947,31.573-27.307,32.427c8.533,0,17.92,0,29.013,0
		c25.6,0,53.76-1.707,67.413-9.387l74.24-45.227c1.707-0.853,2.56-1.707,4.267-1.707l-10.24-29.867c0,0-18.773-15.36-25.6-17.067
		c-6.827-1.707-58.027-1.707-68.267,0c-10.24,1.707-33.28-30.72-42.667-25.6c-9.387,5.12-72.533,16.213-76.8,17.067
		c-4.267,0.853-96.427,25.6-96.427,25.6l0,0C137.436,288.412,146.823,290.119,154.503,295.239"/>
	<g>
		<path style="fill:#FFE100;" d="M59.783,494.065H179.25c17.067,0,76.8-1.707,93.867-4.267l68.267-17.067
			c3.413,0,7.68-0.853,11.093-0.853l0,0c9.387-0.853,17.067-5.973,23.893-11.947l129.707-100.693c5.973-5.12,7.68-12.8,4.267-19.627
			c-0.853,0.853-2.56,1.707-4.267,2.56L376.37,442.865c-6.827,5.973-14.507,11.093-23.893,11.947l0,0
			c-3.413,0.853-6.827,0.853-11.093,0.853l-68.267,17.067c-17.067,2.56-76.8,4.267-93.867,4.267H68.316"/>
		<polygon style="fill:#FFE100;" points="51.25,502.599 25.65,502.599 25.65,366.065 25.65,331.932 25.65,314.865 25.65,297.799 
			51.25,297.799 		"/>
	</g>
	<path style="fill:#FFA800;" d="M51.25,470.172h119.467c17.067,0,76.8-1.707,93.867-4.267l68.267-17.067
		c3.413,0,7.68-0.853,11.093-0.853l0,0c9.387-0.853,17.067-5.973,23.893-11.947l129.707-100.693c5.973-5.12,7.68-12.8,4.267-19.627
		c-0.853,0.853-2.56,1.707-4.267,2.56L367.836,418.972c-6.827,5.973-14.507,11.093-23.893,11.947l0,0
		c-3.413,0.853-6.827,0.853-11.093,0.853l-68.267,17.067c-17.067,2.56-76.8,4.267-93.867,4.267H59.783"/>
	<path style="fill:#FFE100;" d="M494.983,314.865c-11.093-14.507-13.653-11.093-51.2,8.533l-68.267,42.667
		c-11.947,5.973-47.787,16.213-69.12,17.067c1.707-8.533,5.973-22.187-7.68-42.667c-11.947-17.92-41.813-25.6-63.147-25.6h-33.28
		c-19.627,0-24.747,3.413-40.107-8.533c-35.84-27.307-110.933,17.067-110.933,17.067v136.533h110.933
		c17.067,0,76.8-1.707,93.867-4.267l68.267-17.067c3.413,0,7.68-0.853,11.093-0.853l0,0c9.387-0.853,17.067-5.973,23.893-11.947
		L489.01,325.105C495.836,319.132,500.103,321.692,494.983,314.865"/>
	<path d="M59.783,511.132H0.05v-128c0-5.12,3.413-8.533,8.533-8.533s8.533,3.413,8.533,8.533v110.933h25.6V306.332h-25.6v8.533
		c0,5.12-3.413,8.533-8.533,8.533s-8.533-3.413-8.533-8.533v-25.6h59.733V511.132z"/>
	<path d="M17.116,348.999c0-5.12-3.413-8.533-8.533-8.533s-8.533,3.413-8.533,8.533s3.413,8.533,8.533,8.533
		S17.116,354.119,17.116,348.999"/>
	<path d="M170.716,485.532h-128v-166.4l3.413-2.56c3.413-2.56,75.093-57.173,116.053-26.453c13.653,10.24,30.72,16.213,48.64,16.213
		h33.28c24.747,0,47.787,11.947,61.44,31.573c7.68,11.093,9.387,20.48,5.12,28.16c21.333,0,44.373-1.707,54.613-7.68l73.387-45.227
		c37.547-19.627,52.907-19.627,68.267,0.853c7.68,10.24,5.973,25.6-4.267,34.133l0,0L373.81,449.692
		c-8.533,7.68-17.92,12.8-28.16,14.507c-3.413,0.853-7.68,1.707-11.947,1.707L222.77,482.972
		C205.703,483.825,187.783,485.532,170.716,485.532z M59.783,468.465h110.933c16.213,0,33.28-0.853,49.493-3.413l112.64-17.067
		c3.413,0,5.973,0,9.387-0.853c7.68-0.853,14.507-4.267,19.627-10.24l0.853-0.853l129.707-100.693
		c3.413-2.56,3.413-7.68,1.707-10.24c-6.827-10.24-10.24-14.507-46.08,3.413l-73.387,45.227
		c-19.627,10.24-57.173,11.093-97.28,10.24c-1.707,0-3.413,0-4.267,0c-5.12,0-8.533,0-11.093,0l0.853-17.067c2.56,0,5.973,0,9.387,0
		c11.093-0.853,21.333-2.56,23.893-6.827c0.853-1.707,0-6.827-3.413-11.947c-11.093-15.36-29.013-24.747-48.64-24.747h-33.28
		c-21.333,0-42.667-6.827-58.88-19.627c-23.893-17.92-71.68,9.387-92.16,23.893V468.465z M497.543,342.172L497.543,342.172
		L497.543,342.172z"/>
	<path d="M145.116,408.732c-5.12,0-8.533-3.413-8.533-8.533c0-21.333,16.213-34.133,42.667-34.133h82.773
		c5.12,0,8.533,3.413,8.533,8.533s-3.413,8.533-8.533,8.533H179.25c-25.6,0-25.6,12.8-25.6,17.067
		C153.65,405.319,150.236,408.732,145.116,408.732z"/>
	<path d="M256.05,263.665c-5.12,0-8.533-3.413-8.533-8.533v-148.48c0-5.12,3.413-8.533,8.533-8.533c5.12,0,8.533,3.413,8.533,8.533
		v148.48C264.583,260.252,261.17,263.665,256.05,263.665z"/>
	<path d="M251.783,123.719c-25.6,0-46.933-21.333-46.933-46.933V8.519c0,0,0-0.853,0-1.707c0-2.56,1.707-5.12,3.413-6.827
		c1.707-1.707,5.12-0.853,7.68,0l42.667,15.36c3.413,0.853,5.973,3.413,5.973,7.68v92.16c0,4.267-3.413,7.68-7.68,8.533h-0.853
		C254.343,123.719,253.49,123.719,251.783,123.719z M221.916,19.612v57.173c0,15.36,11.093,27.307,25.6,29.867V28.999
		L221.916,19.612z"/>
	<path d="M260.316,123.719c-1.707,0-2.56,0-4.267,0h-0.853c-4.267-0.853-7.68-4.267-7.68-8.533V46.919
		c0-3.413,2.56-6.827,5.973-7.68l42.667-15.36c2.56-0.853,5.12-0.853,7.68,0.853s3.413,4.267,3.413,6.827v0.853v44.373
		C307.25,102.385,285.916,123.719,260.316,123.719z M264.583,52.892v53.76c14.507-1.707,25.6-14.507,25.6-29.867v-33.28
		L264.583,52.892z"/>
	<path d="M256.05,209.052h-8.533v-8.533c0-33.28,26.453-59.733,59.733-59.733h8.533v8.533
		C315.783,181.745,289.33,209.052,256.05,209.052z M297.863,158.705c-16.213,3.413-28.16,16.213-31.573,31.573
		C281.65,186.865,293.596,174.919,297.863,158.705z"/>
	<path d="M302.13,383.985c-8.533,0-16.213,0-23.04,0l-5.973-0.853v-17.067c14.507-0.853,23.04-3.413,24.747-6.827
		c0.853-1.707,0-6.827-4.267-11.947c-10.24-15.36-27.307-23.893-46.933-23.893h-33.28c-21.333,0-42.667-6.827-58.88-19.627h-2.56
		l-1.707-1.707c-5.973-2.56-13.653-4.267-22.187-4.267l-14.507,0.853l8.533-17.067l4.267-1.707
		c3.413-0.853,92.16-24.747,96.427-25.6c0.853,0,5.12-0.853,10.24-1.707c38.4-6.827,59.733-11.947,64-14.507
		c10.24-5.973,21.333,4.267,31.573,13.653c4.267,3.413,11.093,10.24,13.653,11.093c11.947-1.707,63.147-2.56,71.68,0
		c6.827,2.56,23.04,14.507,28.16,18.773l1.707,1.707l12.8,39.253l-10.24,5.12l-73.387,45.227
		C361.01,380.572,338.823,383.132,302.13,383.985z M162.183,289.265c0.853,0,1.707,0.853,2.56,1.707
		c13.653,10.24,30.72,16.213,48.64,16.213h33.28c24.747,0,47.787,11.947,61.44,31.573c7.68,11.093,9.387,20.48,5.12,28.16
		c16.213,0,40.96-1.707,52.053-7.68l71.68-43.52l-6.827-20.48c-8.533-5.973-17.92-12.8-21.333-14.507c-5.973-1.707-53.76-1.707-64,0
		c-9.387,1.707-17.92-5.973-28.16-15.36c-4.267-3.413-10.24-9.387-13.653-11.093c-8.533,4.267-32.427,8.533-68.267,15.36
		c-5.12,0.853-8.533,1.707-9.387,1.707C224.476,272.199,192.05,280.732,162.183,289.265z"/>
</g>
</svg>