<?xml version="1.0" encoding="UTF-8" standalone="no"?>
<!-- Uploaded to: SVG Repo, www.svgrepo.com, Generator: SVG Repo Mixer Tools -->

<svg
   height="800px"
   width="800px"
   version="1.1"
   id="_x32_"
   viewBox="0 0 512 512"
   xml:space="preserve"
   sodipodi:docname="twitter-svgrepo-com-1.svg"
   inkscape:version="1.1.1 (3bf5ae0d25, 2021-09-20)"
   xmlns:inkscape="http://www.inkscape.org/namespaces/inkscape"
   xmlns:sodipodi="http://sodipodi.sourceforge.net/DTD/sodipodi-0.dtd"
   xmlns="http://www.w3.org/2000/svg"
   xmlns:svg="http://www.w3.org/2000/svg"><defs
   id="defs13" /><sodipodi:namedview
   id="namedview11"
   pagecolor="#ffffff"
   bordercolor="#666666"
   borderopacity="1.0"
   inkscape:pageshadow="2"
   inkscape:pageopacity="0.0"
   inkscape:pagecheckerboard="0"
   showgrid="false"
   inkscape:zoom="1.4884598"
   inkscape:cx="180.38781"
   inkscape:cy="446.43463"
   inkscape:window-width="1920"
   inkscape:window-height="1027"
   inkscape:window-x="-8"
   inkscape:window-y="-8"
   inkscape:window-maximized="1"
   inkscape:current-layer="_x32_" />
<style
   type="text/css"
   id="style2">
	.st0{fill:#000000;}
</style>
<g
   id="g8"
   style="fill:#ffffff;stroke:#ffffff;stroke-opacity:1">
	<path
   class="st0"
   d="M256,0C114.615,0,0,114.615,0,256s114.615,256,256,256s256-114.615,256-256S397.385,0,256,0z M256,448   c-105.869,0-192-86.131-192-192S150.131,64,256,64s192,86.131,192,192S361.869,448,256,448z"
   id="path4"
   style="fill:#ffffff;stroke:#ffffff;stroke-opacity:1" />
	<path
   class="st0"
   d="M372.432,186c0.084-0.125,0.184-0.238,0.268-0.363c-6.652,2.949-13.713,5.098-21.066,6.436   c-1.754,0.264-3.52,0.49-5.305,0.627c7.502-4.594,13.53-11.281,17.44-19.215c1.029-1.973,2.025-3.967,2.785-6.062   c-0.088,0.053-0.184,0.094-0.272,0.146c0.039-0.123,0.11-0.23,0.148-0.354c-8.992,5.332-18.953,9.207-29.556,11.295   c-8.49-9.047-20.588-14.699-33.975-14.699c-25.709,0-46.549,20.84-46.549,46.545c0,3.348,0.387,6.602,1.057,9.75   c0.041,0.287,0.064,0.564,0.105,0.853c-34.021-1.717-64.633-16.283-87.131-38.932c-2.988-3.051-5.871-6.219-8.56-9.578   c-0.014,0.024-0.022,0.047-0.035,0.07c-0.055-0.066-0.117-0.123-0.172-0.19c-4.006,6.875-6.301,14.869-6.301,23.4   c0,13.328,5.652,25.305,14.631,33.795c1.783,1.756,3.67,3.424,5.734,4.918c-7.502-0.295-14.56-2.357-20.742-5.791   c-0.002,0.195-0.004,0.389-0.004,0.586c0,18.754,11.174,34.791,27.158,42.164c3.098,1.49,6.324,2.754,9.771,3.558   c-3.787,0.994-7.754,1.551-11.853,1.551c-2.649,0-5.209-0.31-7.734-0.738c-0.258-0.072-0.543-0.09-0.795-0.172   c0.012,0.035,0.03,0.066,0.041,0.1c-0.088-0.016-0.184-0.01-0.27-0.026c5.184,16.188,19.004,28.516,36.029,31.59   c2.365,0.473,4.787,0.766,7.252,0.881c-15.9,12.393-35.89,19.781-57.609,19.781c-3.02,0-5.979-0.244-8.926-0.523   c-0.68-0.121-1.385-0.166-2.049-0.33c0.129,0.082,0.266,0.152,0.394,0.234c-0.172-0.019-0.351-0.012-0.521-0.031   c20.598,13.207,45.064,20.912,71.352,20.912c47.303,0,82.695-21.694,104.959-51.446c0.074-0.098,0.156-0.189,0.228-0.287   c2.129-2.86,4.088-5.809,5.971-8.805c0.387-0.611,0.816-1.195,1.192-1.812c1.736-2.862,3.303-5.795,4.818-8.752   c0.377-0.736,0.806-1.447,1.17-2.192c1.764-3.6,3.354-7.258,4.789-10.959c0.018-0.043,0.037-0.086,0.055-0.129   c6.084-15.73,9.254-32.197,9.254-48.054c0-2.02-0.045-4.026-0.135-6.022c7.234-5.223,13.664-11.514,19.152-18.553   c1.428-1.744,2.842-3.5,4.17-5.324C372.676,185.908,372.551,185.949,372.432,186z"
   id="path6"
   style="fill:#ffffff;stroke:#ffffff;stroke-opacity:1" />
</g>
<path
   style="fill:#3fa9f5;fill-opacity:1;stroke:#030303;stroke-width:0.80000001;stroke-opacity:1;stroke-miterlimit:4;stroke-dasharray:none;stroke-dashoffset:0"
   d="m 376.72209,698.72614 c -1.82898,-0.2091 -7.38717,-0.83659 -12.35154,-1.39442 C 315.93402,691.8891 265.2929,671.98525 224.70309,642.43719 117.87099,564.66691 74.281449,428.12331 116.52245,303.56295 c 21.72122,-64.05158 66.99499,-121.01559 125.1355,-157.44704 36.04242,-22.58455 74.51869,-36.501 119.38718,-43.18105 16.27929,-2.42367 61.63045,-2.42367 77.90974,0 42.7992,6.37197 79.11729,19.07815 114.26172,39.97539 22.27626,13.2457 41.01035,28.13776 60.62722,48.19366 36.21211,37.02254 61.45553,80.73112 74.8762,129.64697 7.5211,27.41302 10.38438,49.26433 10.38438,79.24912 0,60.31713 -16.11051,114.19487 -49.15005,164.37055 -11.91827,18.09974 -22.0131,30.26346 -39.85796,48.02667 -46.50928,46.29647 -101.79824,73.96183 -168.26123,84.19414 -9.39471,1.44637 -18.34055,1.97962 -37.08456,2.21058 -13.58669,0.16741 -26.19952,0.1333 -28.0285,-0.0758 z m -3.32542,-156.65901 c 46.42116,-7.37955 88.03977,-29.62757 117.92988,-63.04166 33.97054,-37.97559 53.14862,-85.35716 55.17177,-136.30794 l 0.59569,-15.00219 5.78792,-4.61993 c 10.11555,-8.07428 31.21311,-31.47859 29.72104,-32.97067 -0.28949,-0.28948 -3.98466,0.80733 -8.21149,2.43737 -7.60809,2.93399 -25.45872,7.67182 -28.91391,7.67419 -1.46092,9.5e-4 -1.28588,-0.37719 0.95012,-2.05289 5.48886,-4.11343 12.97803,-11.8494 16.64577,-17.1943 4.57997,-6.67426 10.65488,-19.12083 9.51752,-19.49995 -0.45531,-0.15177 -4.62895,1.63255 -9.27473,3.96518 -10.44149,5.2426 -16.4033,7.53031 -27.7087,10.6326 l -8.8105,2.41766 -5.78447,-5.23465 c -10.99214,-9.94732 -26.92473,-16.42421 -42.80605,-17.40145 -31.18233,-1.91877 -58.50617,14.37392 -71.47725,42.62055 -5.00842,10.90663 -6.57678,19.75293 -6.05649,34.16139 l 0.44136,12.22272 -5.30767,-0.53878 c -36.47254,-3.70227 -68.21572,-14.89311 -97.22876,-34.27736 -13.58551,-9.07678 -24.1018,-18.04474 -36.37038,-31.01553 l -9.83364,-10.39648 -1.86506,3.06685 c -3.07186,5.05128 -6.69984,17.34489 -7.68983,26.05742 -1.03347,9.09523 -0.1075,20.41493 2.36599,28.92342 3.45284,11.87736 12.24642,25.56669 22.10704,34.41492 l 5.39225,4.83863 -4.7506,-0.64758 c -5.30387,-0.723 -21.35473,-5.77368 -22.75534,-7.16037 -3.6115,-3.5756 -4.39671,2.76785 -1.86427,15.0609 4.84977,23.54187 21.60081,43.38611 44.68968,52.94192 3.5933,1.48716 6.90259,3.0178 7.35399,3.40143 1.40398,1.19316 -9.74624,2.09657 -19.03614,1.54231 -6.96896,-0.41577 -8.86298,-0.26112 -8.86298,0.72369 0,2.64363 8.63348,18.3053 12.73079,23.09444 6.45347,7.54314 14.47118,14.0293 22.42361,18.14021 8.64682,4.46989 12.33364,5.71691 22.80285,7.71278 l 8.07601,1.53962 -8.07601,5.2944 c -9.70879,6.36479 -20.74227,11.97042 -30.4038,15.44681 -18.40059,6.62087 -42.48318,10.09559 -58.66984,8.46509 -4.83373,-0.48691 -8.7886,-0.56723 -8.7886,-0.1785 0,1.07036 12.45958,8.12377 24.21257,13.70683 18.7929,8.92726 42.52543,15.66448 64.62354,18.34541 10.80952,1.31141 45.5414,0.51419 57.00712,-1.30851 z"
   id="path1020"
   transform="scale(0.64)" /><path
   style="fill:#f5f5f5;fill-opacity:1;stroke:#ffffff;stroke-width:1.79999995;stroke-opacity:1;stroke-miterlimit:4;stroke-dasharray:none"
   d="m 318.28979,541.53572 c -18.4193,-2.0822 -41.83417,-8.26727 -57.4606,-15.17829 -17.83823,-7.88924 -24.93139,-11.62783 -23.62818,-12.45374 0.70334,-0.44575 6.19566,-0.82548 12.20517,-0.84383 24.5439,-0.075 47.39559,-6.33373 69.22488,-18.95977 9.76191,-5.64628 19.13616,-12.20997 19.13616,-13.3988 0,-0.34014 -2.94228,-0.89189 -6.53839,-1.22612 -11.3492,-1.0548 -24.79566,-6.125 -35.26683,-13.29794 -9.8225,-6.72858 -16.42868,-14.57332 -22.62982,-26.87255 l -2.93738,-5.82594 13.00959,-0.69679 c 13.56034,-0.72628 17.72828,-1.59298 17.07568,-3.55077 -0.21284,-0.63851 -2.06668,-1.64725 -4.11965,-2.24164 -2.05297,-0.5944 -7.15111,-2.79968 -11.3292,-4.90064 -20.67656,-10.39721 -33.60728,-26.10971 -39.00791,-47.39962 -2.8547,-11.25357 -3.03448,-15.11323 -0.65514,-14.06518 8.4821,3.73619 22.12956,7.04649 29.12573,7.06469 2.6079,0.007 2.23832,-0.52931 -6.70903,-9.73155 -10.57001,-10.87111 -15.98847,-19.19425 -19.94789,-30.64133 -2.37956,-6.87955 -2.63081,-8.86339 -2.6473,-20.90261 -0.0191,-13.9214 1.05126,-19.92896 5.23612,-29.38953 l 1.99527,-4.51062 12.98186,12.75633 c 34.78626,34.18192 71.32283,52.34032 119.92823,59.60342 7.02273,1.0494 13.67591,1.91081 14.78485,1.91423 1.95676,0.006 2.02975,-0.46332 2.47404,-15.90827 0.5113,-17.77462 1.439,-21.67386 8.49599,-35.70951 3.03959,-6.04544 5.69506,-9.48877 12.54329,-16.26478 9.58181,-9.48078 15.91724,-13.65184 26.40905,-17.38696 9.05637,-3.2241 28.60881,-4.09783 39.62018,-1.77049 8.85235,1.87101 20.7952,7.6721 28.15617,13.67651 8.40937,6.85959 8.74907,6.97916 15.4124,5.42471 6.8963,-1.6088 23.51079,-7.76134 30.43083,-11.26889 2.74347,-1.39058 4.98812,-2.26255 4.98812,-1.93771 0,1.36254 -5.09653,10.58444 -8.14356,14.73532 -3.58138,4.87881 -18.98748,19.86047 -20.42314,19.86047 -0.48784,0 -0.88698,0.42755 -0.88698,0.95012 0,2.28426 14.7042,0.0268 28.77171,-4.41707 4.09715,-1.29429 7.9228,-2.19545 8.50144,-2.00257 1.24269,0.41423 -22.03515,24.61219 -27.65431,28.74743 l -3.87321,2.85036 -0.0257,6.65083 c -0.0341,8.83187 -1.66788,26.45926 -3.4343,37.05463 -9.48837,56.91326 -43.01982,109.08823 -89.8936,139.87448 -10.82923,7.11253 -30.55811,16.72468 -44.00507,21.4398 -11.65892,4.08814 -28.30132,7.85494 -40.35846,9.1346 -13.51058,1.43392 -40.30997,1.99016 -48.93111,1.01558 z"
   id="path17693"
   transform="scale(0.64)" /></svg>
