<svg
	version="1.1"
	id="Capa_1"
	xmlns="http://www.w3.org/2000/svg"
	xmlns:xlink="http://www.w3.org/1999/xlink"
	x="0px"
	y="0px"
	viewBox="0 0 56 56"
	style="enable-background:new 0 0 56 56;"
	xml:space="preserve"
>
	<g>
		<path
			style="fill:#F2ECBF;"
			d="M56,16c0-1.299-0.619-2.454-1.579-3.184c-0.549-0.418-0.549-1.213,0-1.631
		C55.381,10.454,56,9.299,56,8c0-1.954-1.401-3.581-3.254-3.931c-0.417-0.079-0.736-0.398-0.815-0.815C51.581,1.401,49.954,0,48,0
		c-1.299,0-2.454,0.619-3.184,1.579c-0.418,0.549-1.213,0.549-1.631,0C42.454,0.619,41.299,0,40,0s-2.454,0.619-3.184,1.579
		c-0.418,0.549-1.213,0.549-1.631,0C34.454,0.619,33.299,0,32,0c-1.299,0-2.454,0.619-3.184,1.579c-0.418,0.549-1.213,0.549-1.631,0
		C26.454,0.619,25.299,0,24,0s-2.454,0.619-3.184,1.579c-0.418,0.549-1.213,0.549-1.631,0C18.454,0.619,17.299,0,16,0
		s-2.454,0.619-3.184,1.579c-0.418,0.549-1.213,0.549-1.631,0C10.454,0.619,9.299,0,8,0C6.046,0,4.419,1.401,4.069,3.254
		C3.991,3.672,3.672,3.991,3.254,4.069C1.401,4.419,0,6.046,0,8c0,1.299,0.619,2.454,1.579,3.184c0.549,0.418,0.549,1.213,0,1.631
		C0.619,13.546,0,14.701,0,16c0,1.299,0.619,2.454,1.579,3.184c0.549,0.418,0.549,1.213,0,1.631C0.619,21.546,0,22.701,0,24
		c0,1.299,0.619,2.454,1.579,3.184c0.549,0.418,0.549,1.213,0,1.631C0.619,29.546,0,30.701,0,32c0,1.299,0.619,2.454,1.579,3.184
		c0.549,0.418,0.549,1.213,0,1.631C0.619,37.546,0,38.701,0,40c0,1.299,0.619,2.454,1.579,3.184c0.549,0.418,0.549,1.213,0,1.631
		C0.619,45.546,0,46.701,0,48c0,1.954,1.402,3.581,3.254,3.931c0.417,0.079,0.736,0.398,0.815,0.815C4.419,54.598,6.046,56,8,56
		c1.299,0,2.454-0.619,3.184-1.579c0.418-0.549,1.213-0.549,1.631,0C13.546,55.381,14.701,56,16,56s2.454-0.619,3.184-1.579
		c0.418-0.549,1.213-0.549,1.631,0C21.546,55.381,22.701,56,24,56s2.454-0.619,3.184-1.579c0.418-0.549,1.213-0.549,1.631,0
		C29.546,55.381,30.701,56,32,56s2.454-0.619,3.184-1.579c0.418-0.549,1.213-0.549,1.631,0C37.546,55.381,38.701,56,40,56
		s2.454-0.619,3.184-1.579c0.418-0.549,1.213-0.549,1.631,0C45.546,55.381,46.701,56,48,56c1.954,0,3.581-1.402,3.931-3.254
		c0.079-0.417,0.398-0.736,0.815-0.815C54.598,51.581,56,49.954,56,48c0-1.299-0.619-2.454-1.579-3.184
		c-0.549-0.418-0.549-1.213,0-1.631C55.381,42.454,56,41.299,56,40c0-1.299-0.619-2.454-1.579-3.184
		c-0.549-0.418-0.549-1.213,0-1.631C55.381,34.454,56,33.299,56,32c0-1.299-0.619-2.454-1.579-3.184
		c-0.549-0.418-0.549-1.213,0-1.631C55.381,26.454,56,25.299,56,24c0-1.299-0.619-2.454-1.579-3.184
		c-0.549-0.418-0.549-1.213,0-1.631C55.381,18.454,56,17.299,56,16z"
		/>
		<path
			id="stamp-frame"
			stroke-width="2"
			d="M47.282,49H8.718C7.769,49,7,48.231,7,47.282V8.718C7,7.769,7.769,7,8.718,7h38.565
		C48.231,7,49,7.769,49,8.718v38.565C49,48.231,48.231,49,47.282,49z"
		/>
		<g id="vscode" transform="translate(4 4) scale(1.5)">
			<path
				d="M29.01,5.03,23.244,2.254a1.742,1.742,0,0,0-1.989.338L2.38,19.8A1.166,1.166,0,0,0,2.3,21.447c.025.027.05.053.077.077l1.541,1.4a1.165,1.165,0,0,0,1.489.066L28.142,5.75A1.158,1.158,0,0,1,30,6.672V6.605A1.748,1.748,0,0,0,29.01,5.03Z"
				style="fill:#0065a9"
			/><path
				d="M29.01,26.97l-5.766,2.777a1.745,1.745,0,0,1-1.989-.338L2.38,12.2A1.166,1.166,0,0,1,2.3,10.553c.025-.027.05-.053.077-.077l1.541-1.4A1.165,1.165,0,0,1,5.41,9.01L28.142,26.25A1.158,1.158,0,0,0,30,25.328V25.4A1.749,1.749,0,0,1,29.01,26.97Z"
				style="fill:#007acc"
			/><path
				d="M23.244,29.747a1.745,1.745,0,0,1-1.989-.338A1.025,1.025,0,0,0,23,28.684V3.316a1.024,1.024,0,0,0-1.749-.724,1.744,1.744,0,0,1,1.989-.339l5.765,2.772A1.748,1.748,0,0,1,30,6.6V25.4a1.748,1.748,0,0,1-.991,1.576Z"
				style="fill:#1f9cf0"
			/>
		</g>
	</g>
</svg>